<?xml version="1.0" encoding="utf-8"?>
<!-- Generator: Adobe Illustrator 16.0.0, SVG Export Plug-In . SVG Version: 6.00 Build 0)  -->
<svg version="1.2" baseProfile="tiny" id="Layer_1" xmlns="http://www.w3.org/2000/svg" xmlns:xlink="http://www.w3.org/1999/xlink"
	 x="0px" y="0px" width="153px" height="153px" viewBox="0 0 153 153" xml:space="preserve">
<g>
	<rect fill="#BE5F3A" width="153" height="153"/>
	<g>
		<path fill="#B84F2D" d="M0.001,6.755L0.001,6.755v5.666l0,0c4.01,0,7.3-3.358,7.3-7.555c0-2.663-1.27-3.473-1.425-4.866H0.211
			c0.094,2.703,1.538,3.341,1.538,4.866C1.749,5.915,0.926,6.755,0.001,6.755L0.001,6.755z M76.502,6.755L76.502,6.755
			c-0.927,0-1.749-0.84-1.749-1.888c0-1.524,1.443-2.164,1.536-4.866h-5.666c-0.152,1.393-1.422,2.203-1.422,4.866
			c0,4.197,3.289,7.555,7.3,7.555l0,0c4.008,0,7.301-3.358,7.301-7.555c0-2.663-1.27-3.472-1.426-4.866h-5.666
			c0.094,2.703,1.539,3.341,1.539,4.866C78.25,5.915,77.426,6.755,76.502,6.755L76.502,6.755z M85.945,0.001
			c-0.166,1.394-1.527,2.203-1.527,4.866c0,4.197,3.291,7.555,7.301,7.555c4.113,0,7.402-3.358,7.402-7.555
			c-0.002-2.663-1.361-3.473-1.525-4.866h-5.562c0.092,2.703,1.535,3.341,1.535,4.866c0,1.049-0.82,1.888-1.85,1.888
			c-0.926,0-1.748-0.84-1.748-1.888c0-1.524,1.445-2.164,1.537-4.866H85.945L85.945,0.001z M101.162,0.001
			c-0.152,1.394-1.424,2.203-1.424,4.866c0,4.197,3.289,7.555,7.301,7.555c4.113,0,7.404-3.358,7.404-7.555
			c0-2.663-1.361-3.472-1.527-4.866h-5.564c0.094,2.703,1.539,3.341,1.539,4.866c0,1.049-0.822,1.888-1.852,1.888
			c-0.926,0-1.746-0.84-1.746-1.888c0-1.524,1.348-2.164,1.432-4.866H101.162L101.162,0.001z M116.584,0.001
			c-0.162,1.394-1.523,2.203-1.523,4.866c0,4.197,3.289,7.555,7.404,7.555c4.008,0,7.299-3.358,7.299-7.555
			c0-2.663-1.271-3.472-1.426-4.866h-5.562c0.086,2.703,1.436,3.341,1.436,4.866c0,1.049-0.824,1.888-1.748,1.888
			c-1.027,0-1.852-0.84-1.852-1.888c0-1.524,1.443-2.164,1.539-4.866H116.584L116.584,0.001z M131.906,0.001
			c-0.164,1.394-1.527,2.203-1.527,4.866c0,4.197,3.291,7.555,7.404,7.555c4.01,0,7.299-3.358,7.299-7.555
			c0-2.663-1.359-3.472-1.523-4.866h-5.564c0.094,2.703,1.539,3.341,1.539,4.866c0,1.049-0.822,1.888-1.75,1.888
			c-1.027,0-1.85-0.84-1.85-1.888c0-1.524,1.445-2.164,1.537-4.866H131.906L131.906,0.001z M147.125,0.001
			c-0.154,1.394-1.426,2.203-1.426,4.866c0,4.197,3.291,7.555,7.301,7.555V6.755c-0.926,0-1.748-0.84-1.748-1.888
			c0-1.524,1.445-2.164,1.537-4.866H147.125L147.125,0.001z M76.502,25.63L76.502,25.63c-0.927,0-1.749-0.839-1.749-1.888
			c0-1.575,1.543-2.205,1.543-5.143c0-4.093-3.291-7.45-7.405-7.45c-4.113,0-7.402,3.357-7.402,7.45
			c0,2.938,1.542,3.568,1.542,5.143c0,1.05-0.823,1.888-1.749,1.888c-1.028,0-1.851-0.839-1.851-1.888
			c0-1.575,1.543-2.205,1.543-5.143c0-4.093-3.292-7.45-7.404-7.45c-4.009,0-7.3,3.357-7.3,7.45c0,2.938,1.439,3.568,1.439,5.143
			c0,1.05-0.821,1.888-1.748,1.888c-1.027,0-1.85-0.839-1.85-1.888c0-1.575,1.542-2.205,1.542-5.143c0-4.093-3.29-7.45-7.404-7.45
			c-4.113,0-7.403,3.357-7.403,7.45c0,2.938,1.543,3.568,1.543,5.143c0,1.05-0.824,1.888-1.851,1.888
			c-0.927,0-1.748-0.839-1.748-1.888c0-1.575,1.439-2.205,1.439-5.143c0-4.093-3.292-7.45-7.3-7.45c-4.115,0-7.404,3.357-7.404,7.45
			c0,2.938,1.542,3.568,1.542,5.143c0,1.05-0.821,1.888-1.849,1.888c-0.926,0-1.749-0.839-1.749-1.888
			c0-1.575,1.542-2.205,1.542-5.143c0-4.093-3.29-7.45-7.402-7.45c-4.113,0-7.405,3.357-7.405,7.45c0,2.938,1.543,3.568,1.543,5.143
			c0,1.05-0.823,1.888-1.748,1.888l0,0v5.667l0,0c4.01,0,7.3-3.359,7.3-7.557c0-2.834-1.438-3.568-1.438-5.143
			c0-0.944,0.72-1.783,1.748-1.783s1.85,0.839,1.85,1.783c0,1.575-1.542,2.309-1.542,5.143c0,4.198,3.29,7.557,7.301,7.557
			c4.111,0,7.404-3.359,7.404-7.557c0-2.834-1.544-3.568-1.544-5.143c0-0.944,0.824-1.783,1.852-1.783
			c0.925,0,1.748,0.839,1.748,1.783c0,1.575-1.439,2.309-1.439,5.143c0,4.198,3.291,7.557,7.3,7.557
			c4.113,0,7.402-3.359,7.402-7.557c0-2.834-1.542-3.568-1.542-5.143c0-0.944,0.821-1.783,1.85-1.783c1.028,0,1.85,0.839,1.85,1.783
			c0,1.575-1.542,2.309-1.542,5.143c0,4.198,3.291,7.557,7.403,7.557c4.01,0,7.3-3.359,7.3-7.557c0-2.834-1.438-3.568-1.438-5.143
			c0-0.944,0.822-1.783,1.747-1.783c1.027,0,1.851,0.839,1.851,1.783c0,1.575-1.542,2.309-1.542,5.143
			c0,4.198,3.29,7.557,7.404,7.557c4.011,0,7.301-3.359,7.301-7.557c0-2.834-1.542-3.568-1.542-5.143
			c0-0.944,0.822-1.783,1.849-1.783c1.028,0,1.749,0.839,1.749,1.783c0,1.575-1.438,2.309-1.438,5.143
			c0,4.198,3.289,7.557,7.301,7.557l0,0c4.008,0,7.299-3.359,7.299-7.557c0-2.834-1.439-3.568-1.439-5.143
			c0-0.944,0.721-1.783,1.748-1.783s1.852,0.839,1.852,1.783c0,1.575-1.543,2.309-1.543,5.143c0,4.198,3.291,7.557,7.299,7.557
			c4.113,0,7.402-3.359,7.402-7.557c0-2.834-1.541-3.568-1.541-5.143c0-0.944,0.822-1.783,1.85-1.783c0.928,0,1.75,0.839,1.75,1.783
			c0,1.575-1.439,2.309-1.439,5.143c0,4.198,3.289,7.557,7.301,7.557c4.113,0,7.404-3.359,7.404-7.557
			c0-2.834-1.543-3.568-1.543-5.143c0-0.944,0.822-1.783,1.85-1.783s1.852,0.839,1.852,1.783c0,1.575-1.543,2.309-1.543,5.143
			c0,4.198,3.291,7.557,7.404,7.557c4.01,0,7.301-3.359,7.301-7.557c0-2.834-1.441-3.568-1.441-5.143
			c0-0.944,0.824-1.783,1.748-1.783c1.029,0,1.852,0.839,1.852,1.783c0,1.575-1.543,2.309-1.543,5.143
			c0,4.198,3.291,7.557,7.402,7.557c4.012,0,7.301-3.359,7.301-7.557c0-2.834-1.541-3.568-1.541-5.143
			c0-0.944,0.822-1.783,1.85-1.783c1.029,0,1.75,0.839,1.75,1.783c0,1.575-1.441,2.309-1.441,5.143c0,4.198,3.291,7.557,7.301,7.557
			V25.63c-0.926,0-1.748-0.839-1.748-1.888c0-1.575,1.541-2.205,1.541-5.143c0-4.093-3.287-7.45-7.402-7.45
			c-4.113,0-7.402,3.357-7.402,7.45c0,2.938,1.543,3.568,1.543,5.143c0,1.05-0.822,1.888-1.75,1.888c-1.027,0-1.85-0.839-1.85-1.888
			c0-1.575,1.541-2.205,1.541-5.143c0-4.093-3.289-7.45-7.402-7.45c-4.01,0-7.301,3.357-7.301,7.45c0,2.938,1.441,3.568,1.441,5.143
			c0,1.05-0.826,1.888-1.748,1.888c-1.029,0-1.852-0.839-1.852-1.888c0-1.575,1.543-2.205,1.543-5.143
			c0-4.093-3.291-7.45-7.406-7.45c-4.111,0-7.402,3.357-7.402,7.45c0,2.938,1.543,3.568,1.543,5.143c0,1.05-0.822,1.888-1.852,1.888
			c-0.926,0-1.746-0.839-1.746-1.888c0-1.575,1.436-2.205,1.436-5.143c0-4.093-3.287-7.45-7.299-7.45
			c-4.113,0-7.402,3.357-7.402,7.45c0,2.938,1.541,3.568,1.541,5.143c0,1.05-0.82,1.888-1.85,1.888
			c-0.926,0-1.748-0.839-1.748-1.888c0-1.575,1.543-2.205,1.543-5.143c0-4.093-3.291-7.45-7.404-7.45s-7.404,3.357-7.404,7.45
			c0,2.938,1.543,3.568,1.543,5.143C78.25,24.791,77.426,25.63,76.502,25.63L76.502,25.63z M76.502,44.747L76.502,44.747
			c-0.927,0-1.749-0.84-1.749-1.889c0-1.575,1.543-2.204,1.543-5.143c0-4.092-3.291-7.45-7.405-7.45
			c-4.113,0-7.402,3.358-7.402,7.45c0,2.939,1.542,3.568,1.542,5.143c0,1.049-0.823,1.889-1.749,1.889
			c-1.028,0-1.851-0.84-1.851-1.889c0-1.575,1.543-2.204,1.543-5.143c0-4.092-3.292-7.45-7.404-7.45c-4.009,0-7.3,3.358-7.3,7.45
			c0,2.939,1.439,3.568,1.439,5.143c0,1.049-0.821,1.889-1.748,1.889c-1.027,0-1.85-0.84-1.85-1.889
			c0-1.575,1.542-2.204,1.542-5.143c0-4.092-3.29-7.45-7.404-7.45c-4.113,0-7.403,3.358-7.403,7.45c0,2.939,1.543,3.568,1.543,5.143
			c0,1.049-0.824,1.889-1.851,1.889c-0.927,0-1.748-0.84-1.748-1.889c0-1.575,1.439-2.204,1.439-5.143c0-4.092-3.292-7.45-7.3-7.45
			c-4.115,0-7.404,3.358-7.404,7.45c0,2.939,1.542,3.568,1.542,5.143c0,1.049-0.821,1.889-1.849,1.889
			c-0.926,0-1.749-0.84-1.749-1.889c0-1.575,1.542-2.204,1.542-5.143c0-4.092-3.29-7.45-7.402-7.45c-4.113,0-7.405,3.358-7.405,7.45
			c0,2.939,1.543,3.568,1.543,5.143c0,1.049-0.823,1.889-1.748,1.889l0,0v5.666l0,0c4.01,0,7.3-3.358,7.3-7.555
			c0-2.834-1.438-3.569-1.438-5.143c0-0.943,0.72-1.784,1.748-1.784s1.85,0.84,1.85,1.784c0,1.574-1.542,2.309-1.542,5.143
			c0,4.197,3.29,7.555,7.301,7.555c4.111,0,7.404-3.358,7.404-7.555c0-2.834-1.544-3.569-1.544-5.143
			c0-0.943,0.824-1.784,1.852-1.784c0.925,0,1.748,0.84,1.748,1.784c0,1.574-1.439,2.309-1.439,5.143c0,4.197,3.291,7.555,7.3,7.555
			c4.113,0,7.402-3.358,7.402-7.555c0-2.834-1.542-3.569-1.542-5.143c0-0.943,0.821-1.784,1.85-1.784c1.028,0,1.85,0.84,1.85,1.784
			c0,1.574-1.542,2.309-1.542,5.143c0,4.197,3.291,7.555,7.403,7.555c4.01,0,7.3-3.358,7.3-7.555c0-2.834-1.438-3.569-1.438-5.143
			c0-0.943,0.822-1.784,1.747-1.784c1.027,0,1.851,0.84,1.851,1.784c0,1.574-1.542,2.309-1.542,5.143
			c0,4.197,3.29,7.555,7.404,7.555c4.011,0,7.301-3.358,7.301-7.555c0-2.834-1.542-3.569-1.542-5.143
			c0-0.943,0.822-1.784,1.849-1.784c1.028,0,1.749,0.84,1.749,1.784c0,1.574-1.438,2.309-1.438,5.143
			c0,4.197,3.289,7.555,7.301,7.555v0.001l0,0c4.008,0,7.299-3.359,7.299-7.556c0-2.834-1.439-3.569-1.439-5.143
			c0-0.943,0.721-1.784,1.748-1.784s1.852,0.84,1.852,1.784c0,1.574-1.543,2.309-1.543,5.143c0,4.197,3.291,7.556,7.299,7.556
			c4.113,0,7.402-3.359,7.402-7.556c0-2.834-1.541-3.569-1.541-5.143c0-0.943,0.822-1.784,1.85-1.784c0.928,0,1.75,0.84,1.75,1.784
			c0,1.574-1.439,2.309-1.439,5.143c0,4.197,3.289,7.556,7.301,7.556c4.113,0,7.404-3.359,7.404-7.556
			c0-2.834-1.543-3.569-1.543-5.143c0-0.943,0.822-1.784,1.85-1.784s1.852,0.84,1.852,1.784c0,1.574-1.543,2.309-1.543,5.143
			c0,4.197,3.291,7.556,7.404,7.556c4.01,0,7.301-3.359,7.301-7.556c0-2.834-1.441-3.569-1.441-5.143
			c0-0.943,0.824-1.784,1.748-1.784c1.029,0,1.852,0.84,1.852,1.784c0,1.574-1.543,2.309-1.543,5.143
			c0,4.197,3.291,7.556,7.402,7.556c4.012,0,7.301-3.359,7.301-7.556c0-2.834-1.541-3.569-1.541-5.143
			c0-0.943,0.822-1.784,1.85-1.784c1.029,0,1.75,0.84,1.75,1.784c0,1.574-1.441,2.309-1.441,5.143c0,4.197,3.291,7.555,7.301,7.556
			v-5.667c-0.926,0-1.748-0.84-1.748-1.889c0-1.575,1.541-2.204,1.541-5.143c0-4.092-3.287-7.45-7.402-7.45
			c-4.113,0-7.402,3.358-7.402,7.45c0,2.939,1.543,3.568,1.543,5.143c0,1.049-0.822,1.889-1.75,1.889c-1.027,0-1.85-0.84-1.85-1.889
			c0-1.575,1.541-2.204,1.541-5.143c0-4.092-3.289-7.45-7.402-7.45c-4.01,0-7.301,3.358-7.301,7.45c0,2.939,1.441,3.568,1.441,5.143
			c0,1.049-0.826,1.889-1.748,1.889c-1.029,0-1.852-0.84-1.852-1.889c0-1.575,1.543-2.204,1.543-5.143
			c0-4.092-3.291-7.45-7.406-7.45c-4.111,0-7.402,3.358-7.402,7.45c0,2.939,1.543,3.568,1.543,5.143
			c0,1.049-0.822,1.889-1.852,1.889c-0.926,0-1.746-0.84-1.746-1.889c0-1.575,1.436-2.204,1.436-5.143
			c0-4.092-3.287-7.45-7.299-7.45c-4.113,0-7.402,3.358-7.402,7.45c0,2.939,1.541,3.568,1.541,5.143c0,1.049-0.82,1.889-1.85,1.889
			c-0.926,0-1.748-0.84-1.748-1.889c0-1.575,1.543-2.204,1.543-5.143c0-4.092-3.291-7.45-7.404-7.45s-7.404,3.358-7.404,7.45
			c0,2.939,1.543,3.568,1.543,5.143C78.25,43.907,77.426,44.747,76.502,44.747L76.502,44.747z M76.502,63.623L76.502,63.623
			c-0.927,0-1.749-0.841-1.749-1.89c0-1.573,1.543-2.204,1.543-5.142c0-4.094-3.291-7.451-7.405-7.451
			c-4.113,0-7.402,3.357-7.402,7.451c0,2.938,1.542,3.568,1.542,5.142c0,1.051-0.823,1.89-1.749,1.89
			c-1.028,0-1.851-0.84-1.851-1.89c0-1.573,1.543-2.204,1.543-5.142c0-4.094-3.292-7.451-7.404-7.451c-4.009,0-7.3,3.357-7.3,7.451
			c0,2.938,1.439,3.568,1.439,5.142c0,1.051-0.821,1.89-1.748,1.89c-1.027,0-1.85-0.84-1.85-1.89c0-1.573,1.542-2.204,1.542-5.142
			c0-4.094-3.29-7.451-7.404-7.451c-4.113,0-7.403,3.357-7.403,7.451c0,2.938,1.543,3.568,1.543,5.142
			c0,1.051-0.824,1.89-1.851,1.89c-0.927,0-1.748-0.84-1.748-1.89c0-1.573,1.439-2.204,1.439-5.142c0-4.094-3.292-7.451-7.3-7.451
			c-4.115,0-7.404,3.357-7.404,7.451c0,2.938,1.542,3.568,1.542,5.142c0,1.051-0.821,1.89-1.849,1.89
			c-0.926,0-1.749-0.84-1.749-1.89c0-1.573,1.542-2.204,1.542-5.142c0-4.094-3.29-7.451-7.402-7.451
			c-4.113,0-7.405,3.357-7.405,7.451c0,2.938,1.543,3.568,1.543,5.142c0,1.051-0.823,1.89-1.748,1.89l0,0v5.666l0,0
			c4.01,0,7.3-3.357,7.3-7.557c0-2.832-1.438-3.568-1.438-5.142c0-0.944,0.72-1.785,1.748-1.785s1.85,0.841,1.85,1.785
			c0,1.573-1.542,2.31-1.542,5.142c0,4.199,3.29,7.557,7.301,7.557c4.111,0,7.404-3.357,7.404-7.557
			c0-2.832-1.544-3.568-1.544-5.142c0-0.944,0.824-1.785,1.852-1.785c0.925,0,1.748,0.841,1.748,1.785
			c0,1.573-1.439,2.31-1.439,5.142c0,4.199,3.291,7.557,7.3,7.557c4.113,0,7.402-3.357,7.402-7.557c0-2.832-1.542-3.568-1.542-5.142
			c0-0.944,0.821-1.785,1.85-1.785c1.028,0,1.85,0.841,1.85,1.785c0,1.573-1.542,2.31-1.542,5.142c0,4.199,3.291,7.557,7.403,7.557
			c4.01,0,7.3-3.357,7.3-7.557c0-2.832-1.438-3.568-1.438-5.142c0-0.944,0.822-1.785,1.747-1.785c1.027,0,1.851,0.841,1.851,1.785
			c0,1.573-1.542,2.31-1.542,5.142c0,4.199,3.29,7.557,7.404,7.557c4.011,0,7.301-3.357,7.301-7.557
			c0-2.832-1.542-3.568-1.542-5.142c0-0.944,0.822-1.785,1.849-1.785c1.028,0,1.749,0.841,1.749,1.785
			c0,1.573-1.438,2.31-1.438,5.142c0,4.199,3.289,7.557,7.301,7.557l0,0c4.008,0,7.299-3.357,7.299-7.557
			c0-2.832-1.439-3.568-1.439-5.142c0-0.944,0.721-1.785,1.748-1.785s1.852,0.841,1.852,1.785c0,1.573-1.543,2.31-1.543,5.142
			c0,4.199,3.291,7.557,7.299,7.557c4.113,0,7.402-3.357,7.402-7.557c0-2.832-1.541-3.568-1.541-5.142
			c0-0.944,0.822-1.785,1.85-1.785c0.928,0,1.75,0.841,1.75,1.785c0,1.573-1.439,2.31-1.439,5.142c0,4.199,3.289,7.557,7.301,7.557
			c4.113,0,7.404-3.357,7.404-7.557c0-2.832-1.543-3.568-1.543-5.142c0-0.944,0.822-1.785,1.85-1.785s1.852,0.841,1.852,1.785
			c0,1.573-1.543,2.31-1.543,5.142c0,4.199,3.291,7.557,7.404,7.557c4.01,0,7.301-3.357,7.301-7.557
			c0-2.832-1.441-3.568-1.441-5.142c0-0.944,0.824-1.785,1.748-1.785c1.029,0,1.852,0.841,1.852,1.785
			c0,1.573-1.543,2.31-1.543,5.142c0,4.199,3.291,7.557,7.402,7.557c4.012,0,7.301-3.357,7.301-7.557
			c0-2.832-1.541-3.568-1.541-5.142c0-0.944,0.822-1.785,1.85-1.785c1.029,0,1.75,0.841,1.75,1.785c0,1.573-1.441,2.31-1.441,5.142
			c0,4.199,3.291,7.557,7.301,7.557v-5.666c-0.926,0-1.748-0.841-1.748-1.89c0-1.573,1.541-2.204,1.541-5.142
			c0-4.094-3.287-7.451-7.402-7.451c-4.113,0-7.402,3.357-7.402,7.451c0,2.938,1.543,3.568,1.543,5.142
			c0,1.051-0.822,1.89-1.75,1.89c-1.027,0-1.85-0.84-1.85-1.89c0-1.573,1.541-2.204,1.541-5.142c0-4.094-3.289-7.451-7.402-7.451
			c-4.01,0-7.301,3.357-7.301,7.451c0,2.938,1.441,3.568,1.441,5.142c0,1.051-0.826,1.89-1.748,1.89c-1.029,0-1.852-0.84-1.852-1.89
			c0-1.573,1.543-2.204,1.543-5.142c0-4.094-3.291-7.451-7.406-7.451c-4.111,0-7.402,3.357-7.402,7.451
			c0,2.938,1.543,3.568,1.543,5.142c0,1.051-0.822,1.89-1.852,1.89c-0.926,0-1.746-0.84-1.746-1.89c0-1.573,1.436-2.204,1.436-5.142
			c0-4.094-3.287-7.451-7.299-7.451c-4.113,0-7.402,3.357-7.402,7.451c0,2.938,1.541,3.568,1.541,5.142c0,1.051-0.82,1.89-1.85,1.89
			c-0.926,0-1.748-0.84-1.748-1.89c0-1.573,1.543-2.204,1.543-5.142c0-4.094-3.291-7.451-7.404-7.451s-7.404,3.357-7.404,7.451
			c0,2.938,1.543,3.568,1.543,5.142C78.25,62.783,77.426,63.623,76.502,63.623L76.502,63.623z M82.486,76.5
			c-0.078-0.247-0.125-0.506-0.125-0.793c0-0.943,0.721-1.783,1.748-1.783s1.852,0.84,1.852,1.783c0,0.287-0.051,0.547-0.137,0.793
			h0.119c-0.164,1.395-1.525,2.205-1.525,4.867c0,4.197,3.291,7.557,7.299,7.557c4.113,0,7.402-3.359,7.402-7.557
			c0-2.662-1.359-3.471-1.523-4.867h0.119c-0.084-0.247-0.137-0.506-0.137-0.793c0-0.943,0.822-1.783,1.85-1.783
			c0.928,0,1.75,0.84,1.75,1.783c0,0.287-0.049,0.547-0.125,0.793h0.109c-0.154,1.395-1.426,2.205-1.426,4.867
			c0,4.197,3.291,7.557,7.301,7.557c4.113,0,7.404-3.359,7.404-7.557c0-2.662-1.361-3.471-1.525-4.867h0.117
			c-0.082-0.247-0.133-0.506-0.133-0.793c0-0.943,0.82-1.783,1.848-1.783c1.029,0,1.852,0.84,1.852,1.783
			c0,0.287-0.051,0.547-0.137,0.793h0.119c-0.162,1.395-1.523,2.205-1.523,4.867c0,4.197,3.289,7.557,7.404,7.557
			c4.008,0,7.299-3.359,7.299-7.557c0-2.662-1.271-3.471-1.426-4.867h0.111c-0.078-0.247-0.127-0.506-0.127-0.793
			c0-0.943,0.824-1.783,1.748-1.783c1.029,0,1.852,0.84,1.852,1.783c0,0.287-0.053,0.547-0.135,0.793h0.119
			c-0.166,1.395-1.527,2.205-1.527,4.867c0,4.197,3.291,7.557,7.402,7.557c4.012,0,7.301-3.359,7.301-7.557
			c0-2.662-1.361-3.471-1.525-4.867h0.119c-0.082-0.247-0.135-0.506-0.135-0.793c0-0.943,0.822-1.783,1.85-1.783
			c1.029,0,1.75,0.84,1.75,1.783c0,0.287-0.049,0.547-0.127,0.793h0.109c-0.152,1.395-1.424,2.205-1.424,4.867
			c0,4.197,3.289,7.557,7.299,7.557v-5.668c-0.924,0-1.748-0.84-1.748-1.889c0-1.523,1.445-2.162,1.539-4.867h-0.035
			c0.025-0.243,0.037-0.508,0.037-0.793c0-4.092-3.287-7.449-7.4-7.449s-7.404,3.357-7.404,7.449c0,0.285,0.016,0.551,0.043,0.793
			h-0.039c0.094,2.705,1.539,3.344,1.539,4.867c0,1.049-0.822,1.889-1.75,1.889c-1.025,0-1.85-0.84-1.85-1.889
			c0-1.523,1.445-2.162,1.537-4.867h-0.035c0.025-0.243,0.041-0.508,0.041-0.793c0-4.092-3.291-7.449-7.404-7.449
			c-4.01,0-7.299,3.357-7.299,7.449c0,0.285,0.014,0.551,0.039,0.793h-0.035c0.086,2.705,1.436,3.344,1.436,4.867
			c0,1.049-0.824,1.889-1.748,1.889c-1.027,0-1.852-0.84-1.852-1.889c0-1.523,1.445-2.162,1.537-4.867h-0.035
			c0.025-0.243,0.041-0.508,0.041-0.793c0-4.092-3.291-7.449-7.404-7.449s-7.402,3.357-7.402,7.449c0,0.285,0.012,0.551,0.039,0.793
			h-0.035c0.094,2.705,1.537,3.344,1.537,4.867c0,1.049-0.822,1.889-1.85,1.889c-0.926,0-1.748-0.84-1.748-1.889
			c0-1.523,1.348-2.162,1.434-4.867h-0.033c0.023-0.243,0.037-0.508,0.037-0.793c0-4.092-3.289-7.449-7.301-7.449
			c-4.111,0-7.402,3.357-7.402,7.449c0,0.285,0.016,0.551,0.043,0.793h-0.037c0.094,2.705,1.535,3.344,1.535,4.867
			c0,1.049-0.82,1.889-1.85,1.889c-0.924,0-1.746-0.84-1.746-1.889c0-1.523,1.443-2.162,1.537-4.867h-0.037
			c0.025-0.243,0.041-0.508,0.041-0.793c0-4.092-3.289-7.449-7.404-7.449c-4.111,0-7.402,3.357-7.402,7.449
			c0,0.285,0.014,0.551,0.041,0.793h-0.037c0.094,2.705,1.539,3.344,1.539,4.867c0,1.049-0.822,1.889-1.749,1.889l0,0
			c-0.926,0-1.748-0.84-1.748-1.889c0-1.523,1.443-2.162,1.536-4.867h-0.036c0.027-0.243,0.042-0.508,0.042-0.793
			c0-4.092-3.29-7.449-7.405-7.449c-4.112,0-7.402,3.357-7.402,7.449c0,0.285,0.014,0.551,0.041,0.793h-0.035
			c0.093,2.705,1.538,3.344,1.538,4.867c0,1.049-0.824,1.889-1.75,1.889c-1.027,0-1.851-0.84-1.851-1.889
			c0-1.523,1.444-2.162,1.538-4.867h-0.036c0.027-0.243,0.042-0.508,0.042-0.793c0-4.092-3.292-7.449-7.405-7.449
			c-4.009,0-7.3,3.357-7.3,7.449c0,0.285,0.015,0.551,0.039,0.793H46.27c0.088,2.705,1.435,3.344,1.435,4.867
			c0,1.049-0.821,1.889-1.748,1.889c-1.027,0-1.85-0.84-1.85-1.889c0-1.523,1.444-2.162,1.537-4.867h-0.036
			c0.026-0.243,0.041-0.508,0.041-0.793c0-4.092-3.29-7.449-7.403-7.449s-7.404,3.357-7.404,7.449c0,0.285,0.015,0.551,0.041,0.793
			h-0.036c0.093,2.705,1.537,3.344,1.537,4.867c0,1.049-0.822,1.889-1.85,1.889c-0.927,0-1.748-0.84-1.748-1.889
			c0-1.523,1.348-2.162,1.435-4.867h-0.034c0.024-0.243,0.038-0.508,0.038-0.793c0-4.092-3.291-7.449-7.3-7.449
			c-4.114,0-7.404,3.357-7.404,7.449c0,0.285,0.017,0.551,0.042,0.793h-0.035c0.092,2.705,1.536,3.344,1.536,4.867
			c0,1.049-0.821,1.889-1.849,1.889c-0.925,0-1.749-0.84-1.749-1.889c0-1.523,1.444-2.162,1.537-4.867h-0.034
			c0.024-0.243,0.039-0.508,0.039-0.793c0-4.092-3.29-7.449-7.402-7.449c-4.114,0-7.405,3.357-7.405,7.449
			c0,0.285,0.016,0.551,0.041,0.793H0.211c0.094,2.705,1.538,3.344,1.538,4.867c0,1.049-0.823,1.889-1.748,1.889l0,0v5.666l0,0
			c4.01,0,7.3-3.357,7.3-7.555c0-2.664-1.27-3.473-1.425-4.868h0.11c-0.076-0.248-0.125-0.506-0.125-0.793
			c0-0.943,0.72-1.784,1.748-1.784s1.85,0.841,1.85,1.784c0,0.287-0.051,0.545-0.134,0.793h0.118
			c-0.166,1.395-1.526,2.204-1.526,4.868c0,4.197,3.29,7.555,7.301,7.555c4.111,0,7.404-3.357,7.404-7.555
			c0-2.664-1.362-3.473-1.526-4.868h0.118c-0.083-0.248-0.136-0.506-0.136-0.793c0-0.943,0.824-1.784,1.852-1.784
			c0.925,0,1.748,0.841,1.748,1.784c0,0.287-0.049,0.545-0.126,0.793h0.11c-0.153,1.395-1.424,2.204-1.424,4.868
			c0,4.197,3.291,7.555,7.3,7.555c4.113,0,7.402-3.357,7.402-7.555c0-2.664-1.36-3.473-1.526-4.868h0.12
			c-0.085-0.248-0.135-0.506-0.135-0.793c0-0.943,0.821-1.784,1.851-1.784c1.027,0,1.849,0.841,1.849,1.784
			c0,0.287-0.049,0.545-0.134,0.793h0.118c-0.165,1.395-1.525,2.204-1.525,4.868c0,4.197,3.291,7.555,7.403,7.555
			c4.01,0,7.3-3.357,7.3-7.555c0-2.664-1.269-3.473-1.425-4.868h0.112c-0.08-0.248-0.126-0.506-0.126-0.793
			c0-0.943,0.822-1.784,1.747-1.784c1.027,0,1.851,0.841,1.851,1.784c0,0.287-0.051,0.545-0.135,0.793h0.119
			c-0.165,1.395-1.526,2.204-1.526,4.868c0,4.197,3.29,7.555,7.404,7.555c4.011,0,7.301-3.357,7.301-7.555
			c0-2.664-1.361-3.473-1.526-4.868h0.118c-0.083-0.248-0.134-0.506-0.134-0.793c0-0.943,0.822-1.784,1.849-1.784
			c1.028,0,1.749,0.841,1.749,1.784c0,0.287-0.049,0.545-0.126,0.793h0.109c-0.152,1.395-1.423,2.204-1.423,4.868
			c0,4.197,3.29,7.555,7.3,7.555l0,0c4.008,0,7.299-3.357,7.299-7.555c0-2.664-1.268-3.473-1.424-4.868L82.486,76.5L82.486,76.5z
			 M76.502,102.131L76.502,102.131c-0.927,0-1.749-0.84-1.749-1.889c0-1.574,1.543-2.203,1.543-5.143
			c0-4.092-3.291-7.451-7.405-7.451c-4.113,0-7.402,3.359-7.402,7.451c0,2.939,1.542,3.568,1.542,5.143
			c0,1.049-0.823,1.889-1.749,1.889c-1.028,0-1.851-0.84-1.851-1.889c0-1.574,1.543-2.203,1.543-5.143
			c0-4.092-3.292-7.451-7.404-7.451c-4.009,0-7.3,3.359-7.3,7.451c0,2.939,1.439,3.568,1.439,5.143c0,1.049-0.821,1.889-1.748,1.889
			c-1.027,0-1.85-0.84-1.85-1.889c0-1.574,1.542-2.203,1.542-5.143c0-4.092-3.29-7.451-7.404-7.451
			c-4.113,0-7.403,3.359-7.403,7.451c0,2.939,1.542,3.568,1.542,5.143c0,1.049-0.823,1.889-1.85,1.889
			c-0.927,0-1.748-0.84-1.748-1.889c0-1.574,1.439-2.203,1.439-5.143c0-4.092-3.292-7.451-7.3-7.451
			c-4.115,0-7.404,3.359-7.404,7.451c0,2.939,1.542,3.568,1.542,5.143c0,1.049-0.821,1.889-1.849,1.889
			c-0.926,0-1.749-0.84-1.749-1.889c0-1.574,1.542-2.203,1.542-5.143c0-4.092-3.29-7.451-7.402-7.451
			c-4.113,0-7.405,3.359-7.405,7.451c0,2.939,1.543,3.568,1.543,5.143c0,1.049-0.823,1.889-1.748,1.889l0,0v5.666l0,0
			c4.01,0,7.3-3.357,7.3-7.557c0-2.834-1.438-3.568-1.438-5.141c0-0.945,0.72-1.785,1.748-1.785s1.85,0.84,1.85,1.785
			c0,1.572-1.542,2.307-1.542,5.141c0,4.199,3.29,7.557,7.301,7.557c4.111,0,7.404-3.357,7.404-7.557
			c0-2.834-1.544-3.568-1.544-5.141c0-0.945,0.824-1.785,1.852-1.785c0.925,0,1.748,0.84,1.748,1.785
			c0,1.572-1.439,2.307-1.439,5.141c0,4.199,3.291,7.557,7.3,7.557c4.113,0,7.402-3.357,7.402-7.557
			c0-2.834-1.542-3.568-1.542-5.141c0-0.945,0.821-1.785,1.85-1.785c1.028,0,1.85,0.84,1.85,1.785c0,1.572-1.542,2.307-1.542,5.141
			c0,4.199,3.291,7.557,7.403,7.557c4.01,0,7.3-3.357,7.3-7.557c0-2.834-1.438-3.568-1.438-5.141c0-0.945,0.822-1.785,1.747-1.785
			c1.027,0,1.851,0.84,1.851,1.785c0,1.572-1.542,2.307-1.542,5.141c0,4.199,3.29,7.557,7.404,7.557
			c4.011,0,7.301-3.357,7.301-7.557c0-2.834-1.542-3.568-1.542-5.141c0-0.945,0.822-1.785,1.849-1.785
			c1.028,0,1.749,0.84,1.749,1.785c0,1.572-1.438,2.307-1.438,5.141c0,4.199,3.289,7.557,7.301,7.557l0,0
			c4.008,0,7.299-3.357,7.299-7.557c0-2.834-1.439-3.568-1.439-5.141c0-0.945,0.721-1.785,1.748-1.785s1.852,0.84,1.852,1.785
			c0,1.572-1.543,2.307-1.543,5.141c0,4.199,3.291,7.557,7.299,7.557c4.113,0,7.402-3.357,7.402-7.557
			c0-2.834-1.541-3.568-1.541-5.141c0-0.945,0.822-1.785,1.85-1.785c0.928,0,1.75,0.84,1.75,1.785c0,1.572-1.439,2.307-1.439,5.141
			c0,4.199,3.289,7.557,7.301,7.557c4.113,0,7.404-3.357,7.404-7.557c0-2.834-1.543-3.568-1.543-5.141
			c0-0.945,0.822-1.785,1.85-1.785s1.852,0.84,1.852,1.785c0,1.572-1.543,2.307-1.543,5.141c0,4.199,3.291,7.557,7.404,7.557
			c4.01,0,7.301-3.357,7.301-7.557c0-2.834-1.441-3.568-1.441-5.141c0-0.945,0.824-1.785,1.748-1.785
			c1.029,0,1.852,0.84,1.852,1.785c0,1.572-1.543,2.307-1.543,5.141c0,4.199,3.291,7.557,7.402,7.557
			c4.012,0,7.301-3.357,7.301-7.557c0-2.834-1.541-3.568-1.541-5.141c0-0.945,0.822-1.785,1.85-1.785c1.029,0,1.75,0.84,1.75,1.785
			c0,1.572-1.441,2.307-1.441,5.141c0,4.199,3.291,7.557,7.301,7.557v-5.666c-0.926,0-1.748-0.84-1.748-1.889
			c0-1.574,1.541-2.203,1.541-5.143c0-4.092-3.287-7.451-7.402-7.451c-4.113,0-7.402,3.359-7.402,7.451
			c0,2.939,1.543,3.568,1.543,5.143c0,1.049-0.822,1.889-1.75,1.889c-1.027,0-1.85-0.84-1.85-1.889c0-1.574,1.541-2.203,1.541-5.143
			c0-4.092-3.289-7.451-7.402-7.451c-4.01,0-7.301,3.359-7.301,7.451c0,2.939,1.441,3.568,1.441,5.143
			c0,1.049-0.826,1.889-1.748,1.889c-1.029,0-1.852-0.84-1.852-1.889c0-1.574,1.543-2.203,1.543-5.143
			c0-4.092-3.291-7.451-7.406-7.451c-4.111,0-7.402,3.359-7.402,7.451c0,2.939,1.543,3.568,1.543,5.143
			c0,1.049-0.822,1.889-1.852,1.889c-0.926,0-1.746-0.84-1.746-1.889c0-1.574,1.436-2.203,1.436-5.143
			c0-4.092-3.287-7.451-7.299-7.451c-4.113,0-7.402,3.359-7.402,7.451c0,2.939,1.541,3.568,1.541,5.143
			c0,1.049-0.82,1.889-1.85,1.889c-0.926,0-1.748-0.84-1.748-1.889c0-1.574,1.543-2.203,1.543-5.143
			c0-4.092-3.291-7.451-7.404-7.451s-7.404,3.359-7.404,7.451c0,2.939,1.543,3.568,1.543,5.143
			C78.25,101.291,77.426,102.131,76.502,102.131L76.502,102.131z M76.502,121.246L76.502,121.246c-0.927,0-1.749-0.84-1.749-1.887
			c0-1.576,1.543-2.205,1.543-5.143c0-4.094-3.291-7.451-7.405-7.451c-4.113,0-7.402,3.357-7.402,7.451
			c0,2.938,1.542,3.566,1.542,5.143c0,1.049-0.823,1.887-1.749,1.887c-1.028,0-1.851-0.84-1.851-1.887
			c0-1.576,1.543-2.205,1.543-5.143c0-4.094-3.292-7.451-7.404-7.451c-4.009,0-7.3,3.357-7.3,7.451c0,2.938,1.439,3.566,1.439,5.143
			c0,1.049-0.821,1.887-1.748,1.887c-1.027,0-1.85-0.84-1.85-1.887c0-1.576,1.542-2.205,1.542-5.143c0-4.094-3.29-7.451-7.404-7.451
			c-4.113,0-7.403,3.357-7.403,7.451c0,2.938,1.542,3.566,1.542,5.143c0,1.049-0.823,1.887-1.85,1.887
			c-0.927,0-1.748-0.84-1.748-1.887c0-1.576,1.439-2.205,1.439-5.143c0-4.094-3.292-7.451-7.3-7.451
			c-4.115,0-7.404,3.357-7.404,7.451c0,2.938,1.542,3.566,1.542,5.143c0,1.049-0.821,1.887-1.849,1.887
			c-0.926,0-1.749-0.84-1.749-1.887c0-1.576,1.542-2.205,1.542-5.143c0-4.094-3.29-7.451-7.402-7.451
			c-4.113,0-7.405,3.357-7.405,7.451c0,2.938,1.543,3.566,1.543,5.143c0,1.049-0.823,1.887-1.748,1.887l0,0v5.666l0,0
			c4.01,0,7.3-3.357,7.3-7.555c0-2.834-1.438-3.568-1.438-5.143c0-0.943,0.72-1.783,1.748-1.783s1.85,0.84,1.85,1.783
			c0,1.574-1.542,2.309-1.542,5.143c0,4.197,3.29,7.555,7.301,7.555c4.111,0,7.404-3.357,7.404-7.555
			c0-2.834-1.544-3.568-1.544-5.143c0-0.943,0.824-1.783,1.852-1.783c0.925,0,1.748,0.84,1.748,1.783
			c0,1.574-1.439,2.309-1.439,5.143c0,4.197,3.291,7.555,7.3,7.555c4.113,0,7.402-3.357,7.402-7.555
			c0-2.834-1.542-3.568-1.542-5.143c0-0.943,0.821-1.783,1.85-1.783c1.028,0,1.85,0.84,1.85,1.783c0,1.574-1.542,2.309-1.542,5.143
			c0,4.197,3.291,7.555,7.403,7.555c4.01,0,7.3-3.357,7.3-7.555c0-2.834-1.438-3.568-1.438-5.143c0-0.943,0.822-1.783,1.747-1.783
			c1.027,0,1.851,0.84,1.851,1.783c0,1.574-1.542,2.309-1.542,5.143c0,4.197,3.29,7.555,7.404,7.555
			c4.011,0,7.301-3.357,7.301-7.555c0-2.834-1.542-3.568-1.542-5.143c0-0.943,0.822-1.783,1.849-1.783
			c1.028,0,1.749,0.84,1.749,1.783c0,1.574-1.438,2.309-1.438,5.143c0,4.197,3.289,7.555,7.301,7.555l0,0
			c4.008,0,7.299-3.357,7.299-7.555c0-2.834-1.439-3.568-1.439-5.143c0-0.943,0.721-1.783,1.748-1.783s1.852,0.84,1.852,1.783
			c0,1.574-1.543,2.309-1.543,5.143c0,4.197,3.291,7.555,7.299,7.555c4.113,0,7.402-3.357,7.402-7.555
			c0-2.834-1.541-3.568-1.541-5.143c0-0.943,0.822-1.783,1.85-1.783c0.928,0,1.75,0.84,1.75,1.783c0,1.574-1.439,2.309-1.439,5.143
			c0,4.197,3.289,7.555,7.301,7.555c4.113,0,7.404-3.357,7.404-7.555c0-2.834-1.543-3.568-1.543-5.143
			c0-0.943,0.822-1.783,1.85-1.783s1.852,0.84,1.852,1.783c0,1.574-1.543,2.309-1.543,5.143c0,4.197,3.291,7.555,7.404,7.555
			c4.01,0,7.301-3.357,7.301-7.555c0-2.834-1.441-3.568-1.441-5.143c0-0.943,0.824-1.783,1.748-1.783
			c1.029,0,1.852,0.84,1.852,1.783c0,1.574-1.543,2.309-1.543,5.143c0,4.197,3.291,7.555,7.402,7.555
			c4.012,0,7.301-3.357,7.301-7.555c0-2.834-1.541-3.568-1.541-5.143c0-0.943,0.822-1.783,1.85-1.783c1.029,0,1.75,0.84,1.75,1.783
			c0,1.574-1.441,2.309-1.441,5.143c0,4.197,3.291,7.555,7.301,7.555v-5.666c-0.926,0-1.748-0.84-1.748-1.887
			c0-1.576,1.541-2.205,1.541-5.143c0-4.094-3.287-7.451-7.402-7.451c-4.113,0-7.402,3.357-7.402,7.451
			c0,2.938,1.543,3.566,1.543,5.143c0,1.049-0.822,1.887-1.75,1.887c-1.027,0-1.85-0.84-1.85-1.887c0-1.576,1.541-2.205,1.541-5.143
			c0-4.094-3.289-7.451-7.402-7.451c-4.01,0-7.301,3.357-7.301,7.451c0,2.938,1.441,3.566,1.441,5.143
			c0,1.049-0.826,1.887-1.748,1.887c-1.029,0-1.852-0.84-1.852-1.887c0-1.576,1.543-2.205,1.543-5.143
			c0-4.094-3.291-7.451-7.406-7.451c-4.111,0-7.402,3.357-7.402,7.451c0,2.938,1.543,3.566,1.543,5.143
			c0,1.049-0.822,1.887-1.852,1.887c-0.926,0-1.746-0.84-1.746-1.887c0-1.576,1.436-2.205,1.436-5.143
			c0-4.094-3.287-7.451-7.299-7.451c-4.113,0-7.402,3.357-7.402,7.451c0,2.938,1.541,3.566,1.541,5.143
			c0,1.049-0.82,1.887-1.85,1.887c-0.926,0-1.748-0.84-1.748-1.887c0-1.576,1.543-2.205,1.543-5.143
			c0-4.094-3.291-7.451-7.404-7.451s-7.404,3.357-7.404,7.451c0,2.938,1.543,3.566,1.543,5.143
			C78.25,120.406,77.426,121.246,76.502,121.246L76.502,121.246z M76.502,140.121L76.502,140.121c-0.927,0-1.749-0.84-1.749-1.889
			c0-1.572,1.543-2.203,1.543-5.141c0-4.094-3.291-7.451-7.405-7.451c-4.113,0-7.402,3.357-7.402,7.451
			c0,2.938,1.542,3.568,1.542,5.141c0,1.051-0.823,1.889-1.749,1.889c-1.028,0-1.851-0.84-1.851-1.889
			c0-1.572,1.543-2.203,1.543-5.141c0-4.094-3.292-7.451-7.404-7.451c-4.009,0-7.3,3.357-7.3,7.451c0,2.938,1.439,3.568,1.439,5.141
			c0,1.051-0.821,1.889-1.748,1.889c-1.027,0-1.85-0.84-1.85-1.889c0-1.572,1.542-2.203,1.542-5.141c0-4.094-3.29-7.451-7.404-7.451
			c-4.113,0-7.403,3.357-7.403,7.451c0,2.938,1.542,3.568,1.542,5.141c0,1.051-0.823,1.889-1.85,1.889
			c-0.927,0-1.748-0.84-1.748-1.889c0-1.572,1.439-2.203,1.439-5.141c0-4.094-3.292-7.451-7.3-7.451
			c-4.115,0-7.404,3.357-7.404,7.451c0,2.938,1.542,3.568,1.542,5.141c0,1.051-0.821,1.889-1.849,1.889
			c-0.926,0-1.749-0.84-1.749-1.889c0-1.572,1.542-2.203,1.542-5.141c0-4.094-3.29-7.451-7.402-7.451
			c-4.113,0-7.405,3.357-7.405,7.451c0,2.938,1.543,3.568,1.543,5.141c0,1.051-0.823,1.889-1.748,1.889l0,0v5.668l0,0
			c4.01,0,7.3-3.359,7.3-7.557c0-2.834-1.438-3.568-1.438-5.143c0-0.943,0.72-1.783,1.748-1.783s1.85,0.84,1.85,1.783
			c0,1.574-1.542,2.309-1.542,5.143c0,4.197,3.29,7.557,7.301,7.557c4.111,0,7.404-3.359,7.404-7.557
			c0-2.834-1.544-3.568-1.544-5.143c0-0.943,0.824-1.783,1.852-1.783c0.925,0,1.748,0.84,1.748,1.783
			c0,1.574-1.439,2.309-1.439,5.143c0,4.197,3.291,7.557,7.3,7.557c4.113,0,7.402-3.359,7.402-7.557
			c0-2.834-1.542-3.568-1.542-5.143c0-0.943,0.821-1.783,1.85-1.783c1.028,0,1.85,0.84,1.85,1.783c0,1.574-1.542,2.309-1.542,5.143
			c0,4.197,3.291,7.557,7.403,7.557c4.01,0,7.3-3.359,7.3-7.557c0-2.834-1.438-3.568-1.438-5.143c0-0.943,0.822-1.783,1.747-1.783
			c1.027,0,1.851,0.84,1.851,1.783c0,1.574-1.542,2.309-1.542,5.143c0,4.197,3.29,7.557,7.404,7.557
			c4.011,0,7.301-3.359,7.301-7.557c0-2.834-1.542-3.568-1.542-5.143c0-0.943,0.822-1.783,1.849-1.783
			c1.028,0,1.749,0.84,1.749,1.783c0,1.574-1.438,2.309-1.438,5.143c0,4.197,3.289,7.557,7.301,7.557l0,0
			c4.008,0,7.299-3.359,7.299-7.557c0-2.834-1.439-3.568-1.439-5.143c0-0.943,0.721-1.783,1.748-1.783s1.852,0.84,1.852,1.783
			c0,1.574-1.543,2.309-1.543,5.143c0,4.197,3.291,7.557,7.299,7.557c4.113,0,7.402-3.359,7.402-7.557
			c0-2.834-1.541-3.568-1.541-5.143c0-0.943,0.822-1.783,1.85-1.783c0.928,0,1.75,0.84,1.75,1.783c0,1.574-1.439,2.309-1.439,5.143
			c0,4.197,3.289,7.557,7.301,7.557c4.113,0,7.404-3.359,7.404-7.557c0-2.834-1.543-3.568-1.543-5.143
			c0-0.943,0.822-1.783,1.85-1.783s1.852,0.84,1.852,1.783c0,1.574-1.543,2.309-1.543,5.143c0,4.197,3.291,7.557,7.404,7.557
			c4.01,0,7.301-3.359,7.301-7.557c0-2.834-1.441-3.568-1.441-5.143c0-0.943,0.824-1.783,1.748-1.783
			c1.029,0,1.852,0.84,1.852,1.783c0,1.574-1.543,2.309-1.543,5.143c0,4.197,3.291,7.557,7.402,7.557
			c4.012,0,7.301-3.359,7.301-7.557c0-2.834-1.541-3.568-1.541-5.143c0-0.943,0.822-1.783,1.85-1.783c1.029,0,1.75,0.84,1.75,1.783
			c0,1.574-1.441,2.309-1.441,5.143c0,4.197,3.291,7.557,7.301,7.557v-5.668c-0.926,0-1.748-0.84-1.748-1.889
			c0-1.572,1.541-2.203,1.541-5.141c0-4.094-3.287-7.451-7.402-7.451c-4.113,0-7.402,3.357-7.402,7.451
			c0,2.938,1.543,3.568,1.543,5.141c0,1.051-0.822,1.889-1.75,1.889c-1.027,0-1.85-0.84-1.85-1.889c0-1.572,1.541-2.203,1.541-5.141
			c0-4.094-3.289-7.451-7.402-7.451c-4.01,0-7.301,3.357-7.301,7.451c0,2.938,1.441,3.568,1.441,5.141
			c0,1.051-0.826,1.889-1.748,1.889c-1.029,0-1.852-0.84-1.852-1.889c0-1.572,1.543-2.203,1.543-5.141
			c0-4.094-3.291-7.451-7.406-7.451c-4.111,0-7.402,3.357-7.402,7.451c0,2.938,1.543,3.568,1.543,5.141
			c0,1.051-0.822,1.889-1.852,1.889c-0.926,0-1.746-0.84-1.746-1.889c0-1.572,1.436-2.203,1.436-5.141
			c0-4.094-3.287-7.451-7.299-7.451c-4.113,0-7.402,3.357-7.402,7.451c0,2.938,1.541,3.568,1.541,5.141
			c0,1.051-0.82,1.889-1.85,1.889c-0.926,0-1.748-0.84-1.748-1.889c0-1.572,1.543-2.203,1.543-5.141
			c0-4.094-3.291-7.451-7.404-7.451s-7.404,3.357-7.404,7.451c0,2.938,1.543,3.568,1.543,5.141
			C78.25,139.281,77.426,140.121,76.502,140.121L76.502,140.121z M82.486,153c-0.078-0.248-0.125-0.508-0.125-0.793
			c0-0.945,0.721-1.785,1.748-1.785s1.852,0.84,1.852,1.785c0,0.285-0.051,0.545-0.137,0.793h5.646
			c0.027-0.244,0.041-0.508,0.041-0.793c0-4.092-3.289-7.451-7.404-7.451c-4.111,0-7.402,3.359-7.402,7.451
			c0,0.285,0.014,0.549,0.041,0.793H82.486L82.486,153z M97.715,153c-0.084-0.248-0.137-0.508-0.137-0.793
			c0-0.945,0.822-1.785,1.85-1.785c0.928,0,1.75,0.84,1.75,1.785c0,0.285-0.049,0.545-0.125,0.793h5.639
			c0.023-0.244,0.037-0.508,0.037-0.793c0-4.092-3.289-7.451-7.301-7.451c-4.111,0-7.402,3.359-7.402,7.451
			c0,0.285,0.016,0.549,0.043,0.793H97.715L97.715,153z M113.033,153c-0.082-0.248-0.133-0.508-0.133-0.793
			c0-0.945,0.822-1.785,1.85-1.785s1.852,0.84,1.852,1.785c0,0.285-0.053,0.545-0.137,0.793h5.648
			c0.025-0.244,0.041-0.508,0.041-0.793c0-4.092-3.291-7.451-7.406-7.451c-4.111,0-7.402,3.359-7.402,7.451
			c0,0.285,0.014,0.549,0.041,0.793H113.033L113.033,153z M128.449,153c-0.078-0.248-0.127-0.508-0.127-0.793
			c0-0.945,0.824-1.785,1.748-1.785c1.029,0,1.852,0.84,1.852,1.785c0,0.285-0.053,0.545-0.135,0.793h5.645
			c0.027-0.244,0.041-0.508,0.041-0.793c0-4.092-3.289-7.451-7.402-7.451c-4.01,0-7.301,3.359-7.301,7.451
			c0,0.285,0.016,0.549,0.039,0.793H128.449L128.449,153z M143.676,153c-0.082-0.248-0.135-0.508-0.135-0.793
			c0-0.945,0.822-1.785,1.85-1.785c1.029,0,1.75,0.84,1.75,1.785c0,0.285-0.049,0.545-0.127,0.793h5.74
			c0.027-0.244,0.039-0.508,0.039-0.793c0-4.092-3.287-7.451-7.402-7.451c-4.113,0-7.402,3.359-7.402,7.451
			c0,0.285,0.014,0.549,0.041,0.793H143.676L143.676,153z M5.987,153c-0.076-0.248-0.125-0.508-0.125-0.793
			c0-0.945,0.72-1.785,1.748-1.785s1.85,0.84,1.85,1.785c0,0.285-0.051,0.545-0.134,0.793h5.646c0.024-0.244,0.04-0.508,0.04-0.793
			c0-4.092-3.29-7.451-7.402-7.451c-4.113,0-7.405,3.359-7.405,7.451c0,0.285,0.016,0.549,0.041,0.793H5.987L5.987,153z M21.214,153
			c-0.083-0.248-0.136-0.508-0.136-0.793c0-0.945,0.824-1.785,1.852-1.785c0.925,0,1.748,0.84,1.748,1.785
			c0,0.285-0.049,0.545-0.126,0.793h5.641c0.024-0.244,0.038-0.508,0.038-0.793c0-4.092-3.292-7.451-7.3-7.451
			c-4.115,0-7.404,3.359-7.404,7.451c0,0.285,0.016,0.549,0.042,0.793H21.214L21.214,153z M36.535,153
			c-0.085-0.248-0.135-0.508-0.135-0.793c0-0.945,0.821-1.785,1.85-1.785c1.028,0,1.85,0.84,1.85,1.785
			c0,0.285-0.049,0.545-0.134,0.793h5.646c0.026-0.244,0.041-0.508,0.041-0.793c0-4.092-3.29-7.451-7.403-7.451
			s-7.404,3.359-7.404,7.451c0,0.285,0.015,0.549,0.041,0.793H36.535L36.535,153z M51.951,153c-0.08-0.248-0.126-0.508-0.126-0.793
			c0-0.945,0.822-1.785,1.747-1.785c1.027,0,1.851,0.84,1.851,1.785c0,0.285-0.051,0.545-0.135,0.793h5.647
			c0.027-0.244,0.042-0.508,0.042-0.793c0-4.092-3.292-7.451-7.404-7.451c-4.009,0-7.3,3.359-7.3,7.451
			c0,0.285,0.015,0.549,0.039,0.793H51.951L51.951,153z M67.176,153c-0.083-0.248-0.133-0.508-0.133-0.793
			c0-0.945,0.821-1.785,1.849-1.785c1.028,0,1.749,0.84,1.749,1.785c0,0.285-0.048,0.545-0.126,0.793h5.74
			c0.027-0.244,0.043-0.508,0.043-0.793c0-4.092-3.291-7.451-7.405-7.451c-4.113,0-7.402,3.359-7.402,7.451
			c0,0.285,0.014,0.549,0.041,0.793H67.176L67.176,153z M9.444,0.001C9.279,1.394,7.918,2.204,7.918,4.867
			c0,4.197,3.29,7.555,7.301,7.555c4.111,0,7.404-3.358,7.404-7.555c0-2.663-1.362-3.473-1.526-4.866h-5.564
			c0.093,2.703,1.536,3.341,1.536,4.866c0,1.049-0.821,1.888-1.849,1.888c-0.926,0-1.75-0.84-1.75-1.888
			c0-1.524,1.445-2.164,1.538-4.866H9.444L9.444,0.001z M24.663,0.001c-0.153,1.393-1.424,2.203-1.424,4.866
			c0,4.197,3.291,7.555,7.3,7.555c4.113,0,7.402-3.358,7.402-7.555c0-2.663-1.36-3.473-1.526-4.866h-5.562
			c0.092,2.703,1.538,3.341,1.538,4.866c0,1.049-0.824,1.888-1.851,1.888c-0.927,0-1.748-0.84-1.748-1.888
			c0-1.524,1.348-2.164,1.435-4.866H24.663L24.663,0.001z M40.085,0.001c-0.165,1.393-1.525,2.203-1.525,4.866
			c0,4.197,3.291,7.555,7.403,7.555c4.01,0,7.3-3.358,7.3-7.555c0-2.663-1.27-3.473-1.425-4.866h-5.563
			c0.088,2.703,1.435,3.341,1.435,4.866c0,1.049-0.821,1.888-1.748,1.888c-1.027,0-1.85-0.84-1.85-1.888
			c0-1.524,1.445-2.164,1.537-4.866H40.085L40.085,0.001z M55.406,0.001C55.24,1.394,53.88,2.204,53.88,4.867
			c0,4.197,3.29,7.555,7.404,7.555c4.011,0,7.301-3.358,7.301-7.555c0-2.663-1.361-3.473-1.526-4.866h-5.563
			c0.094,2.703,1.538,3.341,1.538,4.866c0,1.049-0.823,1.888-1.749,1.888c-1.028,0-1.851-0.84-1.851-1.888
			c0-1.524,1.444-2.164,1.538-4.866H55.406L55.406,0.001z"/>
	</g>
</g>
</svg>
