<?xml version="1.0" encoding="utf-8"?>
<!-- Generator: Adobe Illustrator 16.0.0, SVG Export Plug-In . SVG Version: 6.00 Build 0)  -->
<svg version="1.2" baseProfile="tiny" id="Layer_1" xmlns="http://www.w3.org/2000/svg" xmlns:xlink="http://www.w3.org/1999/xlink"
	 x="0px" y="0px" width="943px" height="512px" viewBox="-529.5 291.5 943 512" xml:space="preserve">
<g>
	<path fill="#86201A" d="M-8.322,644.403c0.486-1.199,1.095-1.521,2.36-1.402c1.267,0.119,2.024,0.429,3.264,0.791
		c1.308,0.41,1.39,0.993,1.378,2.602c0.029,1.899-0.265,9.973-0.472,16.961c2.819-9.141,6.695-20.93,8.138-24.642
		C7,637.015,7.533,637,8.898,637.402c1.124,0.378,2.147,0.889,3.203,1.632c1.14,0.911,1.104,2.344,0.649,3.775
		c-2.784,8.125-8.003,24.324-10.38,32.81c-0.445,1.49-1.222,1.896-2.912,1.718c-1.866-0.155-2.548-0.355-4.097-0.793
		c-1.432-0.453-2.071-1.612-2.201-2.962c-0.369-2.626-0.94-7.959-1.114-12.157c-2.221,5.784-4.886,13.059-6.161,16.688
		c-0.562,1.508-1.253,1.663-2.453,1.595c-1.565-0.137-3.098-0.458-4.404-0.868c-1.241-0.361-1.589-1.146-1.719-2.911
		c-0.632-7.884-0.521-23.188,0.041-32.309c0.079-1.558,0.604-2.047,1.93-1.937c1.624,0.129,2.906,0.364,4.121,0.968
		c1.349,0.702,1.436,2.594,1.341,4.035c-0.106,2.632-0.703,11.937-1.011,19.06C-13.61,657.995-9.737,647.458-8.322,644.403z"/>
	<path fill="#86201A" d="M37.118,641.954c1.435,7.895-0.192,21.056-5.957,28.395c-1.942,2.449-4.262,3.343-7.171,3.361
		c-1.899,0.008-4.211-0.406-5.866-1.261c-1.274-0.668-2.764-2.08-3.523-3.823c-3.592-8.032-0.424-23.531,6.83-31.299
		c1.514-1.621,4.053-2.662,5.96-2.611c2.5,0.033,5.148,0.761,6.666,1.932C35.838,638.021,36.715,639.749,37.118,641.954z
		 M22.118,653.695c-1.343,5.697-1.495,13.262,0.78,13.859c2.217,0.604,4.891-4.909,6.331-12.165
		c1.116-5.609,1.368-13.781-0.577-14.124C26.765,640.915,23.455,647.938,22.118,653.695z"/>
	<path fill="#86201A" d="M46.453,669.629c-0.212,1.27-0.595,1.551-1.857,1.396c-1.269-0.211-2.428-0.495-3.313-0.987
		c-1.141-0.642-1.351-1.447-1.244-3.119c0.5-5.512,2.439-16.109,4.176-24.846c-0.568-0.824-1.28-1.87-1.737-2.767
		c-0.693-1.404-0.715-2.112,0.435-2.955c5.371-3.87,16.116-7.938,20.121-4.004c1.604,1.596,3.145,3.675,3.934,6.964
		c0.782,3.232-0.435,6.098-2.465,8.582c-2.082,2.549-5.16,5.211-8.752,7.516c2.231,2.949,5.819,6.87,8.344,9.252
		c1.056,0.947,0.83,1.565,0.09,2.361c-0.902,0.932-1.415,1.109-2.377,1.516c-1.072,0.477-2.471,0.695-4.225-0.646
		c-2.45-1.739-6.292-5.81-8.956-9.42C47.815,662.3,47.062,666.12,46.453,669.629z M50.44,650.439
		c6.608-3.419,10.512-9.259,9.83-11.078c-0.445-1.313-3.815-1.228-7.355,1.013C52.115,643.252,51.323,646.722,50.44,650.439z"/>
	<path fill="#86201A" d="M89.132,662.336c0.686,1.001,0.511,1.669-0.484,2.412c-0.665,0.478-1.746,0.932-2.546,1.244
		c-1.316,0.478-2.788,0.557-4.132-1.151c-1.145-1.491-3.934-5.372-5.933-9.03c-0.8,4.098-1.568,7.897-2.121,10.849
		c-0.23,1.324-0.62,1.597-1.885,1.359c-1.265-0.236-2.786-0.685-3.854-1.354c-1.069-0.669-1.316-1.415-1.124-3.149
		c0.782-6.818,4.194-25.361,6.153-32.882c0.396-1.457,1.137-1.763,2.407-1.468c1.328,0.29,3.24,1.117,4.373,1.839
		c1.261,0.829,1.48,1.281,1.078,2.68c-0.75,2.732-1.63,6.602-2.589,10.894c4.278-5.489,9.812-12.752,12.202-16.29
		c0.781-1.138,1.427-1.198,2.395-0.343c0.903,0.803,1.786,2.022,2.259,3.281c0.392,1.028,0.32,2.159-0.476,3.771
		c-2.143,4.284-7.628,11.424-12.041,16.747C84.826,655.521,87.557,660.058,89.132,662.336z"/>
	<path fill="#86201A" d="M98.249,655.767c3.689,2.804,7.111,3.56,8.487,2.16c1.601-1.534-4.779-4.793-8.154-8.15
		c-2.357-2.369-3.697-6.17-2.07-10.601c1.368-3.939,4.691-8.612,8.055-11.102c1.292-0.921,3.461-1.964,5.992-1.263
		c1.933,0.57,4.146,1.767,5.356,2.979c1.778,1.702,1.747,3.713,1.686,5.312c-0.215,2.732-1.351,7.423-2.409,9.922
		c-0.507,1.16-1.077,1.437-2.17,1.045c-3.091-1.075-4.574-2.799-4.217-5.188c0.317-2.15,1.756-6.744,1.024-7.047
		c-1.285-0.615-8.302,7.693-4.817,11.752c3.8,4.332,11.599,6.778,9.226,12.326c-1.109,2.621-3.632,6.939-9.558,7.487
		c-3.87,0.4-7.771-1.266-11.404-5.728c-1.879-2.286-1.708-3.185-0.635-3.854C94.394,654.748,96.938,654.8,98.249,655.767z"/>
	<path fill="#86201A" d="M137.493,662.068c-0.288,1.312-0.688,1.567-1.941,1.276s-2.631-0.693-3.673-1.468
		c-1.041-0.773-1.253-1.472-0.985-3.195c0.355-2.319,1.023-5.479,1.794-8.94c-2.042,0.457-4.202,0.919-6.241,1.435
		c-1.082,4.302-2.059,8.362-2.785,11.525c-0.289,1.312-0.748,1.571-2.001,1.28c-1.194-0.294-2.698-0.869-3.733-1.523
		c-1.098-0.712-1.312-1.469-1.046-3.193c0.362-2.2,1.021-5.538,1.836-9.295c-0.459-0.921-0.81-2.024-1.016-2.604
		c-0.412-1.159-0.07-1.413,0.856-1.754c0.406-0.138,0.812-0.277,1.218-0.414c1.551-6.744,3.316-13.913,4.587-17.988
		c0.512-1.56,1.209-1.771,2.469-1.362c1.318,0.406,3.189,1.256,4.29,2.027c1.224,0.883,1.368,1.406,0.966,2.783
		c-0.969,3.057-2.274,7.605-3.563,12.509c2.049-0.339,4.038-0.674,5.915-0.887c1.471-5.973,3.054-12.069,4.312-16.381
		c0.45-1.615,1.212-1.713,2.527-1.364c1.256,0.35,2.824,1.038,4.049,1.921c1.101,0.771,1.311,1.409,0.907,2.786
		C143.748,637.329,140.029,651.439,137.493,662.068z"/>
	<path fill="#86201A" d="M170.889,632.311c0.623,7.998-2.338,20.926-8.821,27.637c-2.181,2.238-4.58,2.891-7.476,2.613
		c-1.891-0.187-4.147-0.833-5.707-1.854c-1.199-0.793-2.537-2.351-3.115-4.161c-2.754-8.357,1.977-23.451,9.985-30.44
		c1.672-1.458,4.303-2.234,6.195-1.989c2.483,0.289,5.043,1.282,6.435,2.602C170.017,628.266,170.713,630.074,170.889,632.311z
		 M154.771,642.458c-1.918,5.531-2.84,13.041-0.638,13.867c2.144,0.828,5.366-4.384,7.538-11.455
		c1.684-5.467,2.767-13.569,0.866-14.108C160.697,630.22,156.687,636.867,154.771,642.458z"/>
	<path fill="#86201A" d="M177.635,661.137c-0.407,1.238-0.818,1.476-2.057,1.188c-1.12-0.349-2.596-0.932-3.542-1.634
		c-1.004-0.763-1.185-1.586-0.839-3.236c1.095-5.426,4.173-15.749,6.786-24.243c-0.417-0.823-1.011-1.939-1.368-2.939
		c-0.596-1.47-0.481-2.178,0.753-2.89c5.759-3.266,16.88-6.143,20.434-1.799c1.422,1.762,2.728,3.994,3.154,7.35
		c0.428,3.297-1.27,5.897-3.438,8.263c-3.518,3.963-10.629,7.823-16.806,9.677C179.608,654.412,178.504,657.892,177.635,661.137z
		 M194.178,632.256c-0.182-1.296-3.6-1.339-7.304,0.386c-1.047,2.832-2.211,6.195-3.432,9.794
		C190.677,639.753,194.601,634.61,194.178,632.256z"/>
	<path fill="#86201A" d="M203.459,652.219c3.435,3.11,6.778,4.157,8.27,2.882c1.727-1.392-4.35-5.185-7.424-8.821
		c-2.145-2.562-3.152-6.465-1.15-10.739c1.701-3.807,5.413-8.176,8.979-10.367c1.366-0.805,3.616-1.659,6.079-0.741
		c1.875,0.731,3.978,2.114,5.08,3.427c1.624,1.849,1.42,3.85,1.222,5.438c-0.448,2.704-1.983,7.279-3.253,9.678
		c-0.604,1.111-1.197,1.339-2.25,0.853c-2.988-1.336-4.318-3.181-3.756-5.53c0.5-2.114,2.328-6.568,1.625-6.931
		c-1.227-0.724-8.932,6.949-5.809,11.293c3.414,4.644,10.973,7.75,8.131,13.074c-1.33,2.515-4.213,6.6-10.165,6.638
		c-3.89,0.065-7.634-1.931-10.869-6.687c-1.675-2.438-1.428-3.319-0.301-3.894C199.707,650.872,202.236,651.142,203.459,652.219z"/>
</g>
<g>
	<g>
		<path fill="#0D838C" d="M-1278.92,169.002l-17.267-4.156l-0.199,0.736c-1.362,5.066-2.042,10.826-2.759,16.926
			c-2.086,17.734-4.243,36.072-23.588,39.521c-11.535,2.049-21.167-4.949-27.693-20.061c28.502-12.248,44.017-33.105,52.025-48.512
			c10.014-19.262,13.915-40.632,10.708-58.631c-3.517-19.741-15.295-31.526-31.507-31.526c-2.195,0-4.494,0.212-6.836,0.63
			c-42.669,7.604-59.517,65.997-50.656,115.739c1.077,6.037,2.613,12.046,4.572,17.872c-1.753,0.432-3.661,0.778-5.485,1.098
			c-4.984,0.889-9.783,1.338-14.26,1.34c-17.387,0-37.39-7.986-41.384-30.404c-2.782-15.612,4.816-34.354,21.94-37.413
			c4.841-0.863,9.017-0.483,14.164,1.335l0.781,0.275l4.287-14.821l-0.692-0.249c-5.464-1.964-11.219-2.436-17.044-1.397
			c-13.493,2.403-24.208,9.28-30.989,19.887c-6.089,9.525-8.398,21.614-6.34,33.168c1.972,11.067,7.816,21.079,16.457,28.191
			c13.25,10.908,32.646,14.736,54.98,10.756c2.728-0.486,5.299-1.108,7.786-1.717c11.085,21.815,25.438,26.418,35.567,26.418
			c2.077,0,4.221-0.192,6.371-0.577c11.457-2.043,19.982-7.107,25.386-15.073c-0.054,4.252-0.074,8.35-0.092,12.275
			c-0.151,31.523-0.25,52.35-18.527,55.605c-0.896,0.159-1.78,0.24-2.625,0.24c-6.902,0.002-10.257-5.092-11.033-9.452
			c-0.9-5.039,1.381-11.547,8.52-13.932l0.734-0.246l-5.507-17.081l-0.685,0.138c-16.494,3.332-22.879,17.67-20.663,30.11
			c1.92,10.776,10.664,21.653,25.866,21.654c0,0,0,0,0.003,0c1.997,0,4.082-0.19,6.197-0.57c30.277-5.389,34.85-33.87,35.327-61.02
			c0.295-17.233-0.218-31.005-0.526-39.232c-0.177-4.745-0.293-7.879-0.189-8.896L-1278.92,169.002z M-1354.306,191.259
			c-1.049-3.485-1.996-7.624-2.885-12.617c-7.079-39.72,1.796-98.469,32.333-103.915c0.706-0.125,1.408-0.19,2.092-0.19
			c7.73,0,13.794,8.137,16.221,21.765C-1301.61,124-1313.215,171.569-1354.306,191.259z"/>
		<path fill="#0D838C" d="M-994.121,163.677l-0.535-0.544l-13.43,12.614l0.516,0.569c5.51,6.117,8.004,14.373,6.834,22.651
			c-1.518,10.761-9.699,22.344-24.088,22.345c-1.271,0.001-2.586-0.094-3.902-0.278c-5.898-0.831-24.854-5.513-21.281-30.872
			c1.191-8.459,5.924-16.997,10.502-25.256c3.869-6.974,7.518-13.562,8.307-19.133c1.424-10.113-4.74-18.48-9.699-25.207
			l-0.752-1.025c4.164-8.962,6.869-17.56,9.305-29.532l0.123-0.611l-14.48-6.553l-0.328,0.697c-4.18,8.915-6.637,16.244-7.502,22.41
			c-0.777,5.517-0.424,10.747,1.088,15.98c-3.516,9.741-7.168,18.057-11.176,25.416l-0.111,0.454
			c-0.018,0.137-0.018,0.27-0.002,0.396h-0.191l-0.188,0.51c-7.299,19.559-16.41,29.898-26.371,29.898
			c-3.697,0-6.504-1.822-8.346-5.418c-1.67-3.264-2.553-8.049-2.547-13.84v-2.125c20.684-3.623,33.037-20.615,33.053-35.141
			c0.002-9.72-5.766-16.008-14.693-16.022c-17.857,0-30.102,21.655-34.035,42.003l-0.193,0.022l-0.141,0.511
			c-5.916,21.705-10.883,32.465-15.189,32.896c-0.107,0.011-0.219,0.018-0.328,0.018c-1.734,0-2.791-1.756-3.135-5.222
			c-0.719-7.213,1.166-16.248,3.162-25.813c2.123-10.174,4.32-20.692,3.416-29.669c-0.877-8.857-5.529-13.469-12.863-12.737
			c-6.98,0.696-13.578,5.706-18.848,14.221c0.238-2.189,0.451-4.306,0.598-6.431c9.699-14.701,23.457-41.96,21.924-57.349
			c-0.82-8.206-5.785-11.947-14.758-11.06c-5.295,0.531-12.029,4.363-15.032,13.525c-5.904,18.06-9.518,64.454-11.707,97.667
			c-1.563,7.312-6.327,29.566-11.012,30.351c-0.068,0.012-0.137,0.018-0.204,0.018c-0.65,0-2.891-0.756-4.511-10.475
			c-1.115-6.655-1.794-16.228-2.081-29.155c0.832-6.896,1.497-14.092,2.031-21.969c3.917-0.661,6.348-1.085,7.049-1.389l0.458-0.2
			l0.249-10.435l-1.021,0.291c-0.837,0.238-2.998,0.817-6.037,1.373c0.596-14.601,0.128-28.512-1.46-43.685l-0.086-0.827
			l-14.434,2.412l-0.037,0.624c-1.118,19.143-1.453,31.905-1.714,44.245c-2.092,0.337-3.945,0.585-5.358,0.773
			c-0.994,0.133-1.773,0.238-2.273,0.324l-0.66,0.114l0.177,10.186l0.917,0.065c0.922,0,3.31-0.381,7.1-1.018
			c-0.531,10.08-0.511,20.161,0.058,29.988l-0.132,0.026l-0.086,0.539c-3.991,25.021-9.757,34.138-11.047,34.489
			c-0.181,0-0.821-0.567-1.367-3.101c-0.263-1.24-0.563-2.646-0.627-4.673c-1.462-20.71-2.025-41.072-1.774-64.078l0.01-0.979
			l-14.472,3.107l0.127,7.493c-3.168-5.766-7.688-7.964-13.716-6.669c-8.187,1.75-14.557,11.478-17.939,27.392
			c-2.958,13.92-3.076,30.605-0.305,43.54c3.255,15.195,9.89,22.776,18.383,20.97c8.456-1.814,13.888-9.01,16.537-21.949
			c2.712,11.133,7.136,15.918,13.384,14.584c6.587-1.406,11.644-9.983,15.804-26.893c3.029,15.006,8.437,22.043,15.866,20.791
			c4.794-0.797,8.328-3.389,11.216-8.299c0.128,1.159,0.285,2.333,0.532,3.492l0.148,0.685l16.338-1.636l0.017-0.689
			c1.104-45.791,7.374-73.69,16.765-74.63c1.922-0.192,2.377,1.838,2.459,2.693c0.584,5.854-1.119,13.627-2.926,21.859
			c-2.258,10.297-4.816,21.969-3.711,33.061c0.73,7.361,4.779,15.957,13.791,15.957c0.418,0,0.836-0.02,1.26-0.062
			c10.869-1.087,16.928-12.447,20.963-23.208c2.738,14.135,10.664,21.873,22.572,21.882c19.045,0,28.594-20.854,37.473-44.085
			l0.055-0.279c0-0.021,0-0.043,0-0.064l0.412,0.129l-0.434-0.292c0-0.009-0.002-0.019-0.006-0.026l9.199-16.799
			c1.045,3.309,1.826,7.26,1.154,12.057c-0.541,3.834-3.428,8.695-6.771,14.324c-4.676,7.88-9.98,16.811-11.389,26.783
			c-3.494,24.84,15.842,41.236,35.814,44.054c2.365,0.333,4.725,0.502,7.01,0.502c0.002,0,0,0,0.002,0
			c24.258,0,37.854-18.11,40.221-34.935C-981.416,184.775-985.402,172.514-994.121,163.677z M-1085.515,119.139h0.006
			c0.631,0,1.141,0.306,1.521,0.909c0.432,0.696,0.664,1.716,0.664,2.951c-0.008,6.481-5.688,18.314-18.266,25.113
			C-1099.201,133.843-1092.379,119.139-1085.515,119.139z M-1152.072,60.143v0.771c0.49,0,0.9,0.707,1.002,1.719
			c0.771,7.749-3.893,21.067-7.838,31.247c2.609-22.111,4.391-32.727,6.777-32.963L-1152.072,60.143L-1152.072,60.143z
			 M-1252.229,140.711c3.695,0,5.552,6.088,6.33,9.719c1.709,7.981,1.75,19.993,0.106,30.601
			c-1.698,10.943-4.856,18.192-8.245,18.919c-2.03,0.42-3.711-2.436-4.901-8.011c-3.604-16.84-0.74-49.713,5.897-51.138
			C-1252.764,140.741-1252.491,140.711-1252.229,140.711z"/>
	</g>
	<path fill="#0D838C" d="M-1116.082,212.273c23.031-1.221,44.912,20.276,52.635,32.812l-1.566,0.966
		c-5.422-5.155-19.725-16.902-44.076-15.613c-42.395,2.245-84.259,22.85-118.294,24.652c-23.764,1.258-37.241-11.562-37.241-11.562
		l0.679-1.066c0,0,14.146,6.02,26.47,5.367C-1193.76,245.514-1159.065,214.549-1116.082,212.273z"/>
</g>
<g>
	<g>
		<path fill="#EFAD5F" d="M-1284.563,163.359l-17.267-4.156l-0.199,0.736c-1.362,5.066-2.042,10.827-2.759,16.926
			c-2.086,17.734-4.243,36.072-23.587,39.521c-11.536,2.049-21.167-4.949-27.693-20.061c28.502-12.248,44.017-33.105,52.025-48.512
			c10.013-19.261,13.915-40.631,10.708-58.631c-3.517-19.741-15.296-31.526-31.507-31.526c-2.195,0-4.494,0.212-6.835,0.63
			c-42.669,7.604-59.517,65.997-50.657,115.74c1.077,6.036,2.613,12.045,4.572,17.871c-1.753,0.432-3.661,0.778-5.484,1.098
			c-4.984,0.889-9.784,1.338-14.26,1.34c-17.388,0-37.39-7.986-41.385-30.403c-2.781-15.612,4.816-34.355,21.941-37.414
			c4.84-0.862,9.016-0.483,14.164,1.335l0.781,0.276l4.287-14.821l-0.691-0.249c-5.464-1.964-11.219-2.436-17.045-1.398
			c-13.493,2.403-24.208,9.28-30.989,19.887c-6.088,9.526-8.398,21.615-6.339,33.168c1.972,11.067,7.815,21.079,16.457,28.191
			c13.25,10.908,32.646,14.736,54.98,10.756c2.728-0.486,5.299-1.107,7.786-1.717c11.085,21.816,25.438,26.418,35.567,26.418
			c2.077,0,4.221-0.192,6.372-0.576c11.457-2.044,19.982-7.107,25.386-15.074c-0.054,4.252-0.075,8.35-0.093,12.275
			c-0.151,31.524-0.25,52.35-18.527,55.605c-0.896,0.159-1.78,0.24-2.625,0.24c-6.902,0.002-10.257-5.092-11.033-9.452
			c-0.9-5.038,1.381-11.547,8.52-13.932l0.734-0.245l-5.507-17.082l-0.685,0.139c-16.494,3.332-22.878,17.669-20.663,30.109
			c1.92,10.777,10.664,21.653,25.867,21.654c0,0,0,0,0.002,0c1.997,0,4.083-0.19,6.197-0.57c30.277-5.389,34.85-33.87,35.328-61.02
			c0.294-17.233-0.219-31.005-0.526-39.232c-0.177-4.744-0.293-7.879-0.19-8.896L-1284.563,163.359z M-1359.948,185.616
			c-1.048-3.485-1.996-7.624-2.885-12.616c-7.079-39.721,1.796-98.469,32.333-103.916c0.706-0.125,1.408-0.19,2.092-0.19
			c7.731,0,13.794,8.137,16.221,21.766C-1307.253,118.357-1318.857,165.927-1359.948,185.616z"/>
		<path fill="#EFAD5F" d="M-999.763,158.034l-0.535-0.544l-13.428,12.614l0.514,0.569c5.512,6.117,8.004,14.373,6.834,22.651
			c-1.518,10.761-9.699,22.344-24.088,22.345c-1.271,0.001-2.586-0.094-3.9-0.278c-5.9-0.831-24.855-5.513-21.283-30.872
			c1.191-8.459,5.926-16.997,10.502-25.256c3.869-6.974,7.518-13.562,8.307-19.133c1.424-10.112-4.74-18.48-9.699-25.207
			l-0.752-1.025c4.164-8.962,6.869-17.56,9.305-29.532l0.123-0.611l-14.48-6.553l-0.328,0.697c-4.18,8.915-6.635,16.244-7.502,22.41
			c-0.777,5.517-0.424,10.747,1.088,15.98c-3.516,9.742-7.168,18.057-11.176,25.416l-0.111,0.454
			c-0.018,0.137-0.018,0.27-0.002,0.396h-0.191l-0.188,0.51c-7.299,19.559-16.41,29.898-26.371,29.898
			c-3.697,0-6.504-1.822-8.346-5.418c-1.668-3.264-2.553-8.049-2.547-13.84v-2.125c20.684-3.623,33.037-20.615,33.053-35.141
			c0.002-9.72-5.766-16.008-14.693-16.022c-17.857,0-30.102,21.655-34.035,42.003l-0.193,0.022l-0.139,0.511
			c-5.916,21.705-10.885,32.465-15.191,32.896c-0.107,0.012-0.219,0.018-0.328,0.018c-1.732,0-2.791-1.756-3.135-5.222
			c-0.719-7.213,1.166-16.248,3.162-25.813c2.123-10.174,4.32-20.692,3.416-29.669c-0.877-8.857-5.529-13.468-12.863-12.737
			c-6.979,0.696-13.578,5.706-18.848,14.221c0.238-2.189,0.451-4.306,0.598-6.431c9.699-14.701,23.457-41.96,21.924-57.349
			c-0.818-8.205-5.785-11.947-14.757-11.059c-5.296,0.531-12.031,4.363-15.033,13.525c-5.904,18.06-9.517,64.454-11.707,97.667
			c-1.563,7.312-6.327,29.567-11.013,30.351c-0.068,0.012-0.137,0.018-0.204,0.018c-0.649,0-2.891-0.756-4.51-10.475
			c-1.116-6.655-1.794-16.227-2.081-29.154c0.832-6.897,1.497-14.093,2.031-21.97c3.917-0.661,6.348-1.085,7.049-1.389l0.458-0.2
			l0.249-10.435l-1.022,0.291c-0.836,0.238-2.998,0.817-6.037,1.373c0.596-14.6,0.128-28.512-1.46-43.684l-0.086-0.828
			l-14.434,2.413l-0.037,0.624c-1.118,19.144-1.453,31.905-1.713,44.245c-2.092,0.337-3.945,0.585-5.358,0.773
			c-0.994,0.133-1.773,0.238-2.273,0.324l-0.659,0.114l0.177,10.186l0.918,0.066c0.921,0,3.309-0.381,7.1-1.019
			c-0.532,10.08-0.512,20.161,0.058,29.989l-0.132,0.025l-0.086,0.539c-3.991,25.021-9.756,34.138-11.047,34.489
			c-0.181,0-0.821-0.566-1.367-3.101c-0.263-1.24-0.563-2.646-0.627-4.673c-1.462-20.709-2.025-41.071-1.774-64.078l0.01-0.979
			l-14.472,3.107l0.127,7.493c-3.168-5.766-7.688-7.964-13.716-6.669c-8.187,1.75-14.557,11.478-17.939,27.392
			c-2.958,13.92-3.076,30.605-0.305,43.54c3.256,15.195,9.89,22.777,18.384,20.97c8.456-1.814,13.888-9.01,16.537-21.949
			c2.712,11.133,7.136,15.918,13.384,14.584c6.587-1.406,11.644-9.983,15.804-26.893c3.029,15.006,8.438,22.043,15.866,20.791
			c4.794-0.797,8.328-3.389,11.216-8.299c0.128,1.159,0.285,2.333,0.532,3.492l0.148,0.685l16.339-1.636l0.016-0.689
			c1.104-45.79,7.374-73.69,16.765-74.63c1.922-0.192,2.377,1.838,2.459,2.693c0.584,5.855-1.119,13.627-2.926,21.859
			c-2.258,10.297-4.816,21.969-3.711,33.061c0.73,7.361,4.779,15.957,13.791,15.957c0.42,0,0.838-0.02,1.26-0.062
			c10.869-1.087,16.928-12.447,20.963-23.208c2.738,14.135,10.666,21.873,22.572,21.883c19.045,0,28.594-20.855,37.473-44.086
			l0.055-0.279c0-0.021,0-0.043,0-0.064l0.412,0.13l-0.434-0.293c0-0.009-0.002-0.019-0.006-0.026l9.199-16.799
			c1.045,3.31,1.826,7.26,1.154,12.057c-0.539,3.834-3.428,8.695-6.771,14.324c-4.676,7.88-9.98,16.811-11.389,26.783
			c-3.494,24.84,15.844,41.236,35.814,44.054c2.365,0.333,4.725,0.502,7.01,0.502c0.002,0,0,0,0.002,0
			c24.258,0,37.854-18.11,40.221-34.935C-987.058,179.133-991.045,166.871-999.763,158.034z M-1091.158,113.496h0.006
			c0.631,0,1.141,0.306,1.521,0.91c0.432,0.696,0.664,1.716,0.664,2.95c-0.006,6.482-5.688,18.314-18.266,25.113
			C-1104.844,128.2-1098.021,113.496-1091.158,113.496z M-1157.714,54.5v0.772c0.489,0,0.899,0.706,1.001,1.719
			c0.771,7.749-3.893,21.067-7.838,31.247c2.609-22.111,4.392-32.727,6.778-32.963L-1157.714,54.5L-1157.714,54.5z
			 M-1257.872,135.068c3.695,0,5.552,6.089,6.33,9.719c1.708,7.981,1.75,19.994,0.105,30.601
			c-1.698,10.944-4.855,18.192-8.244,18.919c-2.03,0.42-3.711-2.436-4.902-8.011c-3.604-16.84-0.74-49.713,5.897-51.138
			C-1258.407,135.099-1258.134,135.068-1257.872,135.068z"/>
	</g>
	<path fill="#DCE3B2" d="M-1121.724,206.631c23.031-1.221,44.912,20.276,52.637,32.812l-1.568,0.965
		c-5.422-5.155-19.725-16.902-44.076-15.613c-42.395,2.246-84.258,22.85-118.294,24.652c-23.764,1.258-37.241-11.562-37.241-11.562
		l0.679-1.066c0,0,14.146,6.02,26.47,5.367C-1199.402,239.871-1164.708,208.906-1121.724,206.631z"/>
</g>
<g>
	<path fill="#DCE3B2" d="M-1119.377,85.427c0.668-0.087,1.043,0.17,1.377,0.721c0.295,0.458,0.646,1.201,0.789,1.735
		c0.211,0.626,0.033,0.802-0.6,0.918c-2.062,0.365-5.654,1.242-7.373,1.834c-1.191,0.389-1.561,0.194-1.914-0.194
		c-0.42-0.415-1.199-1.283-1.604-1.893c-0.299-0.49-0.646-1.201,0.102-1.874c4.744-4.446,10.723-12.597,9.795-13.324
		c-0.586-0.465-1.98,0.937-3.428,2.504c-0.918,0.944-2.52,1.013-3.643,0.656c-0.596-0.208-0.896-0.729-0.057-2.215
		c1.316-2.359,3.35-4.2,5.328-4.784c2.385-0.713,4.439,0.789,5.189,2.078c1.127,1.964,0.539,3.781-0.598,5.966
		c-1.361,2.589-4.096,6.065-6.691,8.499C-1121.57,85.737-1120.236,85.531-1119.377,85.427z"/>
	<path fill="#DCE3B2" d="M-1100.453,72.277c0.617,4.323-0.6,11.371-3.887,15.148c-1.115,1.282-2.367,1.708-3.945,1.68
		c-1.031-0.043-2.244-0.329-3.125-0.867c-0.643-0.365-1.416-1.168-1.783-2.103c-1.652-4.397,0.316-12.826,4.432-16.705
		c0.896-0.814,2.242-1.281,3.246-1.203c1.357,0.081,2.805,0.476,3.568,1.151C-1101.013,70.169-1100.615,71.101-1100.453,72.277z
		 M-1108.894,78.285c-0.92,3.228-0.99,7.029,0.199,7.412c1.154,0.354,2.746-2.542,3.652-6.35c0.721-2.954,1.064-7.324,0.08-7.564
		C-1105.982,71.515-1107.974,75.024-1108.894,78.285z"/>
	<path fill="#DCE3B2" d="M-1094.642,87.327c-0.135,0.719-0.348,0.865-1.033,0.729c-0.688-0.136-1.379-0.336-1.988-0.704
		c-0.574-0.338-0.742-0.806-0.596-1.75c0.359-2.636,1.551-8.812,2.549-13.044c-0.977-0.529-1.248-0.701-0.809-1.605
		c0.465-1.002,1.201-2.19,1.715-2.973c0.486-0.715,0.768-0.835,1.488-0.669c0.689,0.167,1.453,0.458,2.137,0.947
		c0.65,0.461,0.768,0.709,0.543,1.5C-1091.797,73.97-1093.777,82.657-1094.642,87.327z"/>
	<path fill="#DCE3B2" d="M-1079.142,77.356c2.15,1.88,1.885,4.506,0.609,6.575c-1.504,2.408-3.557,3.254-5.822,3.475
		c-1.787,0.149-3.762-0.396-5.654-2.264c-1.119-1.097-0.906-1.629-0.393-2.025c0.84-0.713,2.137-0.596,2.91-0.177
		c2.258,1.228,3.705,0.849,4.9-0.633c1.105-1.41,1.014-2.913,0.525-3.355c-0.518-0.44-1.127-0.42-2.074-0.214
		c-1.199,0.294-2.484-0.469-3.213-1.888c-0.307-0.584-0.25-1.071,0.338-1.346c5.145-2.324,7.109-4.61,6.562-5.401
		c-0.404-0.609-1.805,0.343-2.771,1.099c-1.145,0.931-2.832,0.75-3.799-0.038c-0.484-0.41-0.459-0.894-0.115-1.405
		c0.887-1.328,2.688-2.86,4.504-3.462c1.314-0.431,3.191-0.684,4.846,1.431c1.836,2.355,1.184,4.95-0.049,6.372
		c-0.793,0.902-1.854,1.698-3.115,2.381C-1080.299,76.616-1079.666,76.885-1079.142,77.356z"/>
</g>
<g>
	<g>
		<path fill="#86201A" d="M-179.516,546.094l-34.526-8.311l-0.397,1.471c-2.724,10.131-4.083,21.648-5.517,33.844
			c-4.172,35.461-8.482,72.129-47.165,79.025c-23.064,4.098-42.323-9.896-55.374-40.111c56.992-24.49,88.014-66.195,104.027-97.002
			c20.022-38.514,27.824-81.246,21.411-117.236c-7.031-39.473-30.584-63.037-63-63.037c-4.388,0-8.985,0.424-13.668,1.26
			c-85.318,15.203-119.007,131.963-101.29,231.426c2.152,12.072,5.225,24.086,9.142,35.734c-3.505,0.865-7.32,1.559-10.967,2.197
			c-9.968,1.775-19.562,2.676-28.515,2.68c-34.767,0-74.763-15.971-82.75-60.797c-5.562-31.217,9.63-68.693,43.87-74.809
			c9.681-1.725,18.029-0.965,28.322,2.668l1.562,0.553l8.572-29.637l-1.384-0.496c-10.925-3.928-22.433-4.871-34.081-2.795
			c-26.979,4.805-48.405,18.557-61.965,39.764c-12.175,19.047-16.792,43.221-12.677,66.322
			c3.943,22.131,15.628,42.148,32.907,56.371c26.494,21.811,65.277,29.465,109.937,21.506c5.454-0.971,10.596-2.217,15.566-3.432
			c22.166,43.621,50.866,52.824,71.12,52.824c4.153,0,8.439-0.387,12.739-1.156c22.908-4.084,39.956-14.211,50.761-30.139
			c-0.108,8.502-0.148,16.697-0.185,24.547c-0.302,63.031-0.501,104.676-37.047,111.184c-1.79,0.32-3.56,0.482-5.249,0.482
			c-13.8,0.004-20.51-10.182-22.061-18.902c-1.801-10.074,2.763-23.088,17.036-27.855l1.467-0.492l-11.011-34.154l-1.369,0.275
			c-32.98,6.662-45.748,35.332-41.317,60.207c3.84,21.549,21.323,43.297,51.721,43.299c0,0,0.001,0,0.006,0
			c3.992,0,8.162-0.381,12.391-1.141c60.542-10.775,69.685-67.725,70.639-122.012c0.59-34.459-0.437-61.994-1.052-78.447
			c-0.354-9.488-0.587-15.754-0.38-17.789L-179.516,546.094z M-330.255,590.596c-2.097-6.969-3.99-15.244-5.768-25.229
			c-14.155-79.422,3.591-196.893,64.65-207.781c1.411-0.25,2.816-0.381,4.184-0.381c15.458,0,27.583,16.27,32.436,43.521
			C-224.885,456.109-248.09,551.227-330.255,590.596z"/>
		<path fill="#86201A" d="M389.956,535.445l-1.07-1.088l-26.855,25.221l1.031,1.141c11.016,12.23,16.004,28.74,13.664,45.291
			c-3.035,21.518-19.391,44.68-48.164,44.682c-2.543,0.002-5.172-0.189-7.801-0.559c-11.797-1.66-49.695-11.023-42.555-61.73
			c2.383-16.912,11.844-33.986,21-50.5c7.738-13.943,15.031-27.117,16.609-38.256c2.848-20.221-9.477-36.953-19.395-50.402
			l-1.504-2.049c8.328-17.922,13.734-35.113,18.605-59.051l0.246-1.223l-28.953-13.104l-0.656,1.395
			c-8.359,17.826-13.27,32.482-15.004,44.811c-1.551,11.031-0.844,21.488,2.176,31.953c-7.027,19.479-14.332,36.105-22.344,50.818
			l-0.223,0.91c-0.035,0.273-0.035,0.537-0.004,0.791h-0.383l-0.375,1.021c-14.594,39.107-32.812,59.781-52.73,59.781
			c-7.395,0-13.008-3.643-16.688-10.834c-3.34-6.525-5.105-16.094-5.094-27.672v-4.248c41.359-7.246,66.059-41.223,66.09-70.268
			c0.004-19.436-11.527-32.01-29.379-32.037c-35.707,0-60.188,43.301-68.055,83.986l-0.387,0.045l-0.281,1.021
			c-11.828,43.4-21.762,64.914-30.371,65.779c-0.215,0.021-0.438,0.035-0.656,0.035c-3.469,0-5.582-3.512-6.27-10.441
			c-1.438-14.422,2.332-32.49,6.324-51.615c4.246-20.342,8.637-41.375,6.828-59.324c-1.754-17.711-11.055-26.932-25.719-25.469
			c-13.957,1.391-27.152,11.408-37.688,28.434c0.477-4.377,0.902-8.609,1.195-12.859c19.395-29.395,46.902-83.902,43.836-114.672
			c-1.641-16.408-11.566-23.889-29.508-22.115c-10.586,1.062-24.051,8.727-30.059,27.045
			c-11.805,36.111-19.027,128.879-23.41,195.291C12.859,540,3.335,584.5-6.036,586.068c-0.137,0.023-0.273,0.035-0.406,0.035
			c-1.297,0-5.781-1.512-9.02-20.945c-2.23-13.309-3.586-32.447-4.16-58.297c1.664-13.789,2.992-28.178,4.062-43.93
			c7.832-1.32,12.691-2.17,14.094-2.775l0.918-0.4l0.496-20.865l-2.043,0.58c-1.676,0.477-5.992,1.633-12.07,2.746
			c1.191-29.195,0.254-57.012-2.922-87.35l-0.172-1.654l-28.859,4.822l-0.074,1.248c-2.234,38.277-2.907,63.795-3.429,88.469
			c-4.182,0.676-7.889,1.172-10.713,1.547c-1.986,0.266-3.546,0.475-4.545,0.646l-1.319,0.229l0.355,20.367l1.834,0.131
			c1.844,0,6.618-0.762,14.196-2.035c-1.062,20.154-1.021,40.312,0.115,59.963l-0.264,0.053l-0.174,1.076
			c-7.979,50.033-19.508,68.26-22.088,68.963c-0.362,0-1.642-1.133-2.732-6.199c-0.527-2.479-1.127-5.289-1.254-9.344
			c-2.924-41.408-4.05-82.125-3.548-128.127l0.021-1.959l-28.937,6.213l0.254,14.982c-6.334-11.529-15.373-15.926-27.427-13.336
			c-16.369,3.498-29.106,22.951-35.87,54.771c-5.915,27.834-6.15,61.197-0.609,87.061c6.509,30.385,19.775,45.543,36.758,41.93
			c16.907-3.627,27.77-18.016,33.066-43.889c5.423,22.262,14.27,31.83,26.762,29.162c13.172-2.812,23.282-19.963,31.602-53.773
			c6.055,30.004,16.867,44.076,31.727,41.572c9.582-1.594,16.652-6.775,22.426-16.594c0.254,2.316,0.566,4.664,1.062,6.982
			l0.297,1.369l32.668-3.271l0.035-1.377c2.207-91.561,14.746-147.348,33.523-149.227c3.844-0.385,4.75,3.674,4.914,5.385
			c1.168,11.707-2.238,27.248-5.848,43.707c-4.516,20.592-9.633,43.928-7.422,66.105c1.461,14.721,9.559,31.908,27.578,31.908
			c0.832,0,1.668-0.039,2.52-0.123c21.73-2.174,33.844-24.891,41.914-46.406c5.477,28.264,21.324,43.738,45.137,43.756
			c38.078,0,57.172-41.701,74.926-88.152l0.109-0.559c0-0.041,0-0.084,0-0.129l0.824,0.26l-0.867-0.584
			c0-0.018-0.004-0.037-0.012-0.055l18.395-33.59c2.09,6.617,3.652,14.518,2.309,24.107c-1.082,7.668-6.855,17.389-13.539,28.643
			c-9.352,15.756-19.957,33.613-22.773,53.555c-6.988,49.67,31.676,82.455,71.613,88.088c4.73,0.664,9.445,1.004,14.016,1.004
			c0.004,0,0,0,0.004,0c48.504,0,75.691-36.213,80.426-69.854C415.359,577.631,407.39,553.115,389.956,535.445z M207.206,446.389
			h0.012c1.262,0,2.281,0.611,3.043,1.818c0.863,1.391,1.328,3.432,1.328,5.898c-0.016,12.961-11.375,36.621-36.523,50.217
			C179.843,475.789,193.484,446.389,207.206,446.389z M74.124,328.424v1.543c0.98,0,1.801,1.412,2.004,3.438
			c1.543,15.494-7.785,42.125-15.672,62.48c5.215-44.213,8.777-65.439,13.551-65.912L74.124,328.424L74.124,328.424z
			 M-126.146,489.525c7.389,0,11.101,12.172,12.656,19.432c3.417,15.959,3.499,39.977,0.212,61.186
			c-3.396,21.883-9.71,36.377-16.485,37.832c-4.059,0.838-7.421-4.873-9.801-16.02c-7.205-33.672-1.48-99.402,11.792-102.252
			C-127.217,489.584-126.671,489.525-126.146,489.525z"/>
	</g>
</g>
<g>
	<path fill="#EFAD5F" d="M-190.807,534.801l-34.527-8.311l-0.396,1.473c-2.724,10.131-4.082,21.65-5.517,33.844
		c-4.171,35.461-8.482,72.129-47.164,79.025c-23.066,4.098-42.324-9.896-55.375-40.111c56.992-24.49,88.014-66.195,104.028-97.002
		c20.021-38.514,27.822-81.244,21.411-117.236c-7.032-39.473-30.585-63.037-63.001-63.037c-4.388,0-8.985,0.422-13.668,1.26
		c-85.319,15.203-119.007,131.963-101.291,231.426c2.153,12.072,5.225,24.086,9.143,35.734c-3.505,0.865-7.321,1.559-10.968,2.197
		c-9.966,1.775-19.562,2.676-28.513,2.68c-34.769,0-74.764-15.971-82.752-60.793c-5.561-31.221,9.631-68.697,43.872-74.812
		c9.68-1.725,18.028-0.965,28.322,2.67l1.562,0.551l8.571-29.635l-1.382-0.498c-10.926-3.928-22.434-4.871-34.082-2.795
		c-26.979,4.805-48.405,18.557-61.965,39.764c-12.174,19.047-16.793,43.221-12.676,66.322c3.943,22.129,15.627,42.148,32.906,56.371
		c26.494,21.811,65.276,29.465,109.936,21.506c5.455-0.971,10.596-2.215,15.567-3.432c22.165,43.623,50.866,52.822,71.119,52.822
		c4.154,0,8.44-0.385,12.741-1.152c22.908-4.086,39.955-14.211,50.761-30.141c-0.108,8.502-0.149,16.695-0.187,24.547
		c-0.302,63.033-0.5,104.676-37.046,111.184c-1.79,0.318-3.559,0.48-5.249,0.48c-13.801,0.004-20.51-10.18-22.061-18.9
		c-1.8-10.074,2.761-23.088,17.035-27.855l1.469-0.492l-11.012-34.154l-1.37,0.277c-32.979,6.662-45.746,35.33-41.317,60.205
		c3.841,21.551,21.323,43.297,51.723,43.299c0,0,0.001,0,0.005,0c3.993,0,8.163-0.381,12.391-1.141
		c60.541-10.775,69.684-67.725,70.64-122.012c0.588-34.459-0.438-61.996-1.053-78.447c-0.354-9.486-0.586-15.754-0.38-17.787
		L-190.807,534.801z M-347.313,554.078c-14.154-79.424,3.592-196.895,64.65-207.783c1.411-0.25,2.815-0.381,4.184-0.381
		c15.459,0,27.582,16.271,32.435,43.521c9.867,55.383-13.336,150.5-95.501,189.869
		C-343.641,572.336-345.536,564.061-347.313,554.078z"/>
	<path fill="#EFAD5F" d="M378.663,524.154l-1.07-1.088l-26.848,25.221l1.027,1.141c11.02,12.23,16.004,28.738,13.664,45.291
		c-3.035,21.518-19.395,44.678-48.164,44.68c-2.543,0.002-5.172-0.188-7.801-0.557c-11.797-1.66-49.699-11.023-42.555-61.73
		c2.379-16.912,11.848-33.984,21-50.5c7.734-13.943,15.031-27.119,16.605-38.258c2.848-20.219-9.477-36.951-19.391-50.4
		l-1.508-2.051c8.328-17.92,13.738-35.111,18.609-59.049l0.246-1.223l-28.957-13.104l-0.652,1.395
		c-8.359,17.824-13.27,32.48-15.004,44.811c-1.555,11.029-0.848,21.488,2.176,31.953c-7.031,19.479-14.332,36.105-22.348,50.818
		l-0.223,0.91c-0.035,0.273-0.035,0.537-0.004,0.791h-0.379l-0.375,1.021c-14.598,39.107-32.816,59.781-52.734,59.781
		c-7.391,0-13.004-3.643-16.688-10.834c-3.336-6.525-5.102-16.094-5.09-27.674v-4.246c41.355-7.246,66.059-41.223,66.09-70.268
		c0.004-19.436-11.531-32.01-29.383-32.037c-35.707,0-60.188,43.301-68.055,83.986l-0.387,0.045l-0.277,1.021
		c-11.828,43.4-21.762,64.914-30.375,65.777c-0.215,0.023-0.438,0.035-0.656,0.035c-3.465,0-5.578-3.512-6.266-10.439
		c-1.441-14.424,2.328-32.49,6.32-51.615c4.246-20.344,8.641-41.375,6.832-59.324c-1.754-17.711-11.059-26.932-25.723-25.469
		c-13.953,1.391-27.148,11.408-37.688,28.434c0.477-4.377,0.902-8.609,1.195-12.859c19.395-29.395,46.906-83.902,43.84-114.672
		c-1.637-16.406-11.57-23.889-29.508-22.113c-10.59,1.061-24.059,8.723-30.059,27.043C16.3,354.91,9.077,447.678,4.695,514.09
		c-3.125,14.619-12.652,59.121-22.02,60.688c-0.137,0.023-0.273,0.035-0.406,0.035c-1.301,0-5.781-1.512-9.02-20.945
		c-2.234-13.307-3.586-32.445-4.164-58.297c1.668-13.789,2.996-28.178,4.066-43.93c7.832-1.32,12.691-2.168,14.09-2.777l0.922-0.4
		l0.496-20.863l-2.047,0.58c-1.672,0.477-5.992,1.633-12.07,2.746c1.191-29.195,0.258-57.012-2.922-87.35l-0.172-1.656
		l-28.858,4.824l-0.074,1.248c-2.235,38.277-2.906,63.797-3.427,88.469c-4.184,0.676-7.889,1.17-10.715,1.545
		c-1.986,0.268-3.545,0.477-4.544,0.648l-1.318,0.229l0.354,20.367l1.835,0.131c1.843,0,6.617-0.762,14.197-2.035
		c-1.062,20.154-1.022,40.312,0.115,59.963l-0.265,0.051l-0.173,1.078c-7.979,50.033-19.509,68.26-22.088,68.963
		c-0.362,0-1.642-1.131-2.734-6.199c-0.526-2.479-1.125-5.289-1.253-9.344c-2.924-41.408-4.051-82.125-3.548-128.127l0.021-1.959
		l-28.937,6.213l0.254,14.982c-6.335-11.529-15.373-15.926-27.426-13.336c-16.37,3.498-29.106,22.951-35.871,54.771
		c-5.915,27.834-6.15,61.197-0.609,87.061c6.51,30.385,19.774,45.545,36.759,41.93c16.907-3.627,27.77-18.016,33.065-43.889
		c5.424,22.262,14.27,31.828,26.762,29.162c13.172-2.812,23.283-19.963,31.603-53.773c6.055,30.004,16.868,44.076,31.724,41.572
		c9.586-1.594,16.652-6.777,22.43-16.594c0.254,2.316,0.566,4.664,1.062,6.982l0.297,1.369l32.668-3.271l0.031-1.377
		c2.211-91.561,14.746-147.348,33.523-149.227c3.844-0.385,4.754,3.676,4.918,5.385c1.168,11.707-2.238,27.248-5.852,43.707
		c-4.516,20.592-9.633,43.928-7.422,66.105c1.461,14.719,9.559,31.908,27.578,31.908c0.84,0,1.676-0.039,2.52-0.123
		c21.73-2.172,33.848-24.891,41.914-46.404c5.477,28.262,21.328,43.734,45.137,43.754c38.082,0,57.172-41.701,74.926-88.152
		l0.109-0.559c0-0.041,0-0.084,0-0.129l0.824,0.262l-0.867-0.586c0-0.018-0.004-0.039-0.012-0.055l18.395-33.59
		c2.09,6.617,3.652,14.518,2.309,24.107c-1.074,7.668-6.852,17.389-13.539,28.643c-9.348,15.758-19.957,33.613-22.77,53.555
		c-6.988,49.67,31.68,82.455,71.613,88.088c4.727,0.664,9.445,1.002,14.016,1.002c0.004,0,0,0,0.004,0
		c48.504,0,75.688-36.213,80.422-69.852C404.07,566.34,396.097,541.824,378.663,524.154z M195.917,435.098h0.012
		c1.262,0,2.281,0.611,3.039,1.818c0.863,1.393,1.328,3.432,1.328,5.898c-0.012,12.961-11.371,36.621-36.523,50.217
		C168.55,464.498,182.191,435.098,195.917,435.098z M62.718,318.682l0.117-1.549v1.543c0.977,0,1.797,1.412,2,3.438
		c1.543,15.494-7.781,42.125-15.672,62.48C54.382,340.381,57.945,319.154,62.718,318.682z M-124.569,558.852
		c-3.396,21.885-9.709,36.377-16.485,37.832c-4.058,0.838-7.42-4.873-9.801-16.02c-7.205-33.672-1.479-99.404,11.792-102.252
		c0.555-0.119,1.102-0.178,1.626-0.178c7.389,0,11.102,12.172,12.657,19.432C-121.364,513.625-121.281,537.645-124.569,558.852z"/>
</g>
<g>
	<path fill="#DCE3B2" d="M-13.202,639.523c0.486-1.199,1.095-1.521,2.36-1.402c1.267,0.119,2.024,0.429,3.264,0.791
		c1.308,0.41,1.39,0.993,1.378,2.602c0.029,1.899-0.265,9.973-0.472,16.961c2.819-9.141,6.695-20.93,8.138-24.642
		c0.653-1.698,1.187-1.713,2.552-1.311c1.124,0.378,2.147,0.889,3.203,1.632c1.14,0.911,1.104,2.344,0.649,3.775
		c-2.784,8.125-8.003,24.324-10.38,32.81c-0.445,1.49-1.222,1.896-2.912,1.718c-1.866-0.155-2.548-0.355-4.097-0.793
		c-1.432-0.453-2.071-1.612-2.201-2.962c-0.369-2.626-0.94-7.959-1.114-12.157c-2.221,5.784-4.886,13.059-6.161,16.688
		c-0.562,1.508-1.253,1.663-2.453,1.595c-1.565-0.137-3.098-0.458-4.404-0.868c-1.241-0.361-1.589-1.146-1.719-2.911
		c-0.632-7.884-0.521-23.188,0.041-32.309c0.079-1.558,0.604-2.047,1.93-1.937c1.624,0.129,2.906,0.364,4.121,0.968
		c1.349,0.702,1.436,2.594,1.341,4.035c-0.106,2.632-0.703,11.937-1.011,19.06C-18.49,653.115-14.617,642.578-13.202,639.523z"/>
	<path fill="#DCE3B2" d="M32.238,637.074c1.435,7.895-0.192,21.056-5.957,28.395c-1.942,2.449-4.262,3.343-7.171,3.361
		c-1.899,0.008-4.211-0.406-5.866-1.261c-1.274-0.668-2.764-2.08-3.523-3.823c-3.592-8.032-0.424-23.531,6.83-31.299
		c1.514-1.621,4.053-2.662,5.96-2.611c2.5,0.033,5.148,0.761,6.666,1.932C30.957,633.142,31.834,634.869,32.238,637.074z
		 M17.238,648.815c-1.343,5.697-1.495,13.262,0.78,13.859c2.217,0.604,4.891-4.909,6.331-12.165
		c1.116-5.609,1.368-13.781-0.577-14.124C21.885,636.035,18.574,643.058,17.238,648.815z"/>
	<path fill="#DCE3B2" d="M41.573,664.749c-0.212,1.27-0.595,1.551-1.857,1.396c-1.269-0.211-2.428-0.495-3.313-0.987
		c-1.141-0.642-1.351-1.447-1.244-3.119c0.5-5.512,2.439-16.109,4.176-24.846c-0.568-0.824-1.28-1.87-1.737-2.767
		c-0.693-1.404-0.715-2.112,0.435-2.955c5.371-3.87,16.116-7.938,20.121-4.004c1.604,1.596,3.145,3.675,3.934,6.964
		c0.782,3.232-0.435,6.098-2.465,8.582c-2.082,2.549-5.16,5.211-8.752,7.516c2.231,2.949,5.819,6.87,8.344,9.252
		c1.056,0.947,0.83,1.565,0.09,2.361c-0.902,0.932-1.415,1.109-2.377,1.516c-1.072,0.477-2.471,0.695-4.225-0.646
		c-2.45-1.739-6.292-5.81-8.956-9.42C42.935,657.42,42.182,661.24,41.573,664.749z M45.56,645.56
		c6.608-3.419,10.512-9.259,9.83-11.078c-0.445-1.313-3.815-1.228-7.355,1.013C47.235,638.372,46.443,641.842,45.56,645.56z"/>
	<path fill="#DCE3B2" d="M84.251,657.456c0.686,1.001,0.511,1.669-0.484,2.412c-0.665,0.478-1.746,0.932-2.546,1.244
		c-1.316,0.478-2.788,0.557-4.132-1.151c-1.145-1.491-3.934-5.372-5.933-9.03c-0.8,4.098-1.568,7.897-2.121,10.849
		c-0.23,1.324-0.62,1.597-1.885,1.359c-1.265-0.236-2.786-0.685-3.854-1.354c-1.069-0.669-1.316-1.415-1.124-3.149
		c0.782-6.818,4.194-25.361,6.153-32.882c0.396-1.457,1.137-1.763,2.407-1.468c1.328,0.29,3.24,1.117,4.373,1.839
		c1.261,0.829,1.48,1.281,1.078,2.68c-0.75,2.732-1.63,6.602-2.589,10.894c4.278-5.489,9.812-12.752,12.202-16.29
		c0.781-1.138,1.427-1.198,2.395-0.343c0.903,0.803,1.786,2.022,2.259,3.281c0.392,1.028,0.32,2.159-0.476,3.771
		c-2.143,4.284-7.628,11.424-12.041,16.747C79.946,650.641,82.677,655.178,84.251,657.456z"/>
	<path fill="#DCE3B2" d="M93.368,650.887c3.689,2.804,7.111,3.56,8.487,2.16c1.601-1.534-4.779-4.793-8.154-8.15
		c-2.357-2.369-3.697-6.17-2.07-10.601c1.368-3.939,4.691-8.612,8.055-11.102c1.292-0.921,3.461-1.964,5.992-1.263
		c1.933,0.57,4.146,1.767,5.356,2.979c1.778,1.702,1.747,3.713,1.686,5.312c-0.215,2.732-1.351,7.423-2.409,9.922
		c-0.507,1.16-1.077,1.437-2.17,1.045c-3.091-1.075-4.574-2.799-4.217-5.188c0.317-2.15,1.756-6.744,1.024-7.047
		c-1.285-0.615-8.302,7.693-4.817,11.752c3.8,4.332,11.599,6.778,9.226,12.326c-1.109,2.621-3.632,6.939-9.558,7.487
		c-3.87,0.4-7.771-1.266-11.404-5.728c-1.879-2.286-1.708-3.185-0.635-3.854C89.514,649.868,92.058,649.92,93.368,650.887z"/>
	<path fill="#DCE3B2" d="M132.613,657.188c-0.288,1.312-0.688,1.567-1.941,1.276s-2.631-0.693-3.673-1.468
		c-1.041-0.773-1.253-1.472-0.985-3.195c0.355-2.319,1.023-5.479,1.794-8.94c-2.042,0.457-4.202,0.919-6.241,1.435
		c-1.082,4.302-2.059,8.362-2.785,11.525c-0.289,1.312-0.748,1.571-2.001,1.28c-1.194-0.294-2.698-0.869-3.733-1.523
		c-1.098-0.712-1.312-1.469-1.046-3.193c0.362-2.2,1.021-5.538,1.836-9.295c-0.459-0.921-0.81-2.024-1.016-2.604
		c-0.412-1.159-0.07-1.413,0.856-1.754c0.406-0.138,0.812-0.277,1.218-0.414c1.551-6.744,3.316-13.913,4.587-17.988
		c0.512-1.56,1.209-1.771,2.469-1.362c1.318,0.406,3.189,1.256,4.29,2.027c1.224,0.883,1.368,1.406,0.966,2.783
		c-0.969,3.057-2.274,7.605-3.563,12.509c2.049-0.339,4.038-0.674,5.915-0.887c1.471-5.973,3.054-12.069,4.312-16.381
		c0.45-1.615,1.212-1.713,2.527-1.364c1.256,0.35,2.824,1.038,4.049,1.921c1.101,0.771,1.311,1.409,0.907,2.786
		C138.867,632.449,135.149,646.56,132.613,657.188z"/>
	<path fill="#DCE3B2" d="M166.009,627.431c0.623,7.998-2.338,20.926-8.821,27.637c-2.181,2.238-4.58,2.891-7.476,2.613
		c-1.891-0.187-4.147-0.833-5.707-1.854c-1.199-0.793-2.537-2.351-3.115-4.161c-2.754-8.357,1.977-23.451,9.985-30.44
		c1.672-1.458,4.303-2.234,6.195-1.989c2.483,0.289,5.043,1.282,6.435,2.602C165.137,623.386,165.832,625.194,166.009,627.431z
		 M149.891,637.578c-1.918,5.531-2.84,13.041-0.638,13.867c2.144,0.828,5.366-4.384,7.538-11.455
		c1.684-5.467,2.767-13.569,0.866-14.108C155.817,625.34,151.807,631.987,149.891,637.578z"/>
	<path fill="#DCE3B2" d="M172.754,656.257c-0.407,1.238-0.818,1.476-2.057,1.188c-1.12-0.349-2.596-0.932-3.542-1.634
		c-1.004-0.763-1.185-1.586-0.839-3.236c1.095-5.426,4.173-15.749,6.786-24.243c-0.417-0.823-1.011-1.939-1.368-2.939
		c-0.596-1.47-0.481-2.178,0.753-2.89c5.759-3.266,16.88-6.143,20.434-1.799c1.422,1.762,2.728,3.994,3.154,7.35
		c0.428,3.297-1.27,5.897-3.438,8.263c-3.518,3.963-10.629,7.823-16.806,9.677C174.728,649.532,173.623,653.012,172.754,656.257z
		 M189.298,627.376c-0.182-1.296-3.6-1.339-7.304,0.386c-1.047,2.832-2.211,6.195-3.432,9.794
		C185.797,634.873,189.721,629.73,189.298,627.376z"/>
	<path fill="#DCE3B2" d="M198.578,647.339c3.435,3.11,6.778,4.157,8.27,2.882c1.727-1.392-4.35-5.185-7.424-8.821
		c-2.145-2.562-3.152-6.465-1.15-10.739c1.701-3.807,5.413-8.176,8.979-10.367c1.366-0.805,3.616-1.659,6.079-0.741
		c1.875,0.731,3.978,2.114,5.08,3.427c1.624,1.849,1.42,3.85,1.222,5.438c-0.448,2.704-1.983,7.279-3.253,9.678
		c-0.604,1.111-1.197,1.339-2.25,0.853c-2.988-1.336-4.318-3.181-3.756-5.53c0.5-2.114,2.328-6.568,1.625-6.931
		c-1.227-0.724-8.932,6.949-5.809,11.293c3.414,4.644,10.973,7.75,8.131,13.074c-1.33,2.515-4.213,6.6-10.165,6.638
		c-3.89,0.065-7.634-1.931-10.869-6.687c-1.675-2.438-1.428-3.319-0.301-3.894C194.826,645.992,197.356,646.262,198.578,647.339z"/>
</g>
</svg>
